<?xml version="1.0" encoding="utf-8" standalone="no"?>
<!DOCTYPE svg PUBLIC "-//W3C//DTD SVG 1.1//EN"
  "http://www.w3.org/Graphics/SVG/1.1/DTD/svg11.dtd">
<svg xmlns:xlink="http://www.w3.org/1999/xlink" width="900pt" height="338.4pt" viewBox="0 0 900 338.4" xmlns="http://www.w3.org/2000/svg" version="1.1">
 <metadata>
  <rdf:RDF xmlns:dc="http://purl.org/dc/elements/1.1/" xmlns:cc="http://creativecommons.org/ns#" xmlns:rdf="http://www.w3.org/1999/02/22-rdf-syntax-ns#">
   <cc:Work>
    <dc:type rdf:resource="http://purl.org/dc/dcmitype/StillImage"/>
    <dc:date>2026-09-16T10:27:54.641699</dc:date>
    <dc:format>image/svg+xml</dc:format>
    <dc:creator>
     <cc:Agent>
      <dc:title>Matplotlib v3.11.2, https://matplotlib.org/</dc:title>
     </cc:Agent>
    </dc:creator>
   </cc:Work>
  </rdf:RDF>
 </metadata>
 <defs>
  <style type="text/css">*{stroke-linejoin: round; stroke-linecap: butt}</style>
 </defs>
 <g id="figure_1">
  <g id="patch_1">
   <path d="M 0 338.4
L 900 338.4
L 900 0
L 0 0
z
" style="fill: #ffffff"/>
  </g>
  <g id="axes_1">
   <g id="patch_2">
    <path d="M 45.082344 266.073656
L 459.991172 266.073656
L 459.991172 70.467047
L 45.082344 70.467047
z
" style="fill: #ffffff"/>
   </g>
   <g id="matplotlib.axis_1">
    <g id="xtick_1">
     <g id="line2d_1">
      <path d="M 52.111509 266.073656
L 52.111509 70.467047
" clip-path="url(#pd2f6a789fb)" style="fill: none; stroke: #b0b0b0; stroke-opacity: 0.16; stroke-width: 0.8; stroke-linecap: square"/>
     </g>
     <g id="line2d_2">
      <defs>
       <path id="m75117441f8" d="M 0 0
L 0 3.5
" style="stroke: #000000; stroke-width: 0.8"/>
      </defs>
      <g>
       <use xlink:href="#m75117441f8" x="52.111509" y="266.073656" style="stroke: #000000; stroke-width: 0.8"/>
      </g>
     </g>
     <g id="text_1">
      <!-- $\mathdefault{2^{8}}$ -->
      <g transform="translate(46.511509 282.473656) scale(0.1 -0.1)">
       <defs>
        <path id="DejaVuSans-15" d="M 1228 531
L 3431 531
L 3431 0
L 469 0
L 469 531
Q 828 903 1448 1529
Q 2069 2156 2228 2338
Q 2531 2678 2651 2914
Q 2772 3150 2772 3378
Q 2772 3750 2511 3984
Q 2250 4219 1831 4219
Q 1534 4219 1204 4116
Q 875 4013 500 3803
L 500 4441
Q 881 4594 1212 4672
Q 1544 4750 1819 4750
Q 2544 4750 2975 4387
Q 3406 4025 3406 3419
Q 3406 3131 3298 2873
Q 3191 2616 2906 2266
Q 2828 2175 2409 1742
Q 1991 1309 1228 531
z
" transform="scale(0.015625)"/>
        <path id="DejaVuSans-1b" d="M 2034 2216
Q 1584 2216 1326 1975
Q 1069 1734 1069 1313
Q 1069 891 1326 650
Q 1584 409 2034 409
Q 2484 409 2743 651
Q 3003 894 3003 1313
Q 3003 1734 2745 1975
Q 2488 2216 2034 2216
z
M 1403 2484
Q 997 2584 770 2862
Q 544 3141 544 3541
Q 544 4100 942 4425
Q 1341 4750 2034 4750
Q 2731 4750 3128 4425
Q 3525 4100 3525 3541
Q 3525 3141 3298 2862
Q 3072 2584 2669 2484
Q 3125 2378 3379 2068
Q 3634 1759 3634 1313
Q 3634 634 3220 271
Q 2806 -91 2034 -91
Q 1263 -91 848 271
Q 434 634 434 1313
Q 434 1759 690 2068
Q 947 2378 1403 2484
z
M 1172 3481
Q 1172 3119 1398 2916
Q 1625 2713 2034 2713
Q 2441 2713 2670 2916
Q 2900 3119 2900 3481
Q 2900 3844 2670 4047
Q 2441 4250 2034 4250
Q 1625 4250 1398 4047
Q 1172 3844 1172 3481
z
" transform="scale(0.015625)"/>
       </defs>
       <use xlink:href="#DejaVuSans-15" transform="translate(0 0.746875)"/>
       <use xlink:href="#DejaVuSans-1b" transform="translate(64.580078 42.046875) scale(0.7)"/>
      </g>
     </g>
    </g>
    <g id="xtick_2">
     <g id="line2d_3">
      <path d="M 105.558242 266.073656
L 105.558242 70.467047
" clip-path="url(#pd2f6a789fb)" style="fill: none; stroke: #b0b0b0; stroke-opacity: 0.16; stroke-width: 0.8; stroke-linecap: square"/>
     </g>
     <g id="line2d_4">
      <g>
       <use xlink:href="#m75117441f8" x="105.558242" y="266.073656" style="stroke: #000000; stroke-width: 0.8"/>
      </g>
     </g>
     <g id="text_2">
      <!-- $\mathdefault{2^{10}}$ -->
      <g transform="translate(97.708242 282.473656) scale(0.1 -0.1)">
       <defs>
        <path id="DejaVuSans-14" d="M 794 531
L 1825 531
L 1825 4091
L 703 3866
L 703 4441
L 1819 4666
L 2450 4666
L 2450 531
L 3481 531
L 3481 0
L 794 0
L 794 531
z
" transform="scale(0.015625)"/>
        <path id="DejaVuSans-13" d="M 2034 4250
Q 1547 4250 1301 3770
Q 1056 3291 1056 2328
Q 1056 1369 1301 889
Q 1547 409 2034 409
Q 2525 409 2770 889
Q 3016 1369 3016 2328
Q 3016 3291 2770 3770
Q 2525 4250 2034 4250
z
M 2034 4750
Q 2819 4750 3233 4129
Q 3647 3509 3647 2328
Q 3647 1150 3233 529
Q 2819 -91 2034 -91
Q 1250 -91 836 529
Q 422 1150 422 2328
Q 422 3509 836 4129
Q 1250 4750 2034 4750
z
" transform="scale(0.015625)"/>
       </defs>
       <use xlink:href="#DejaVuSans-15" transform="translate(0 0.746875)"/>
       <use xlink:href="#DejaVuSans-14" transform="translate(64.580078 42.046875) scale(0.7)"/>
       <use xlink:href="#DejaVuSans-13" transform="translate(109.116211 42.046875) scale(0.7)"/>
      </g>
     </g>
    </g>
    <g id="xtick_3">
     <g id="line2d_5">
      <path d="M 159.004975 266.073656
L 159.004975 70.467047
" clip-path="url(#pd2f6a789fb)" style="fill: none; stroke: #b0b0b0; stroke-opacity: 0.16; stroke-width: 0.8; stroke-linecap: square"/>
     </g>
     <g id="line2d_6">
      <g>
       <use xlink:href="#m75117441f8" x="159.004975" y="266.073656" style="stroke: #000000; stroke-width: 0.8"/>
      </g>
     </g>
     <g id="text_3">
      <!-- $\mathdefault{2^{12}}$ -->
      <g transform="translate(151.154975 282.473656) scale(0.1 -0.1)">
       <use xlink:href="#DejaVuSans-15" transform="translate(0 0.746875)"/>
       <use xlink:href="#DejaVuSans-14" transform="translate(64.580078 42.046875) scale(0.7)"/>
       <use xlink:href="#DejaVuSans-15" transform="translate(109.116211 42.046875) scale(0.7)"/>
      </g>
     </g>
    </g>
    <g id="xtick_4">
     <g id="line2d_7">
      <path d="M 212.451708 266.073656
L 212.451708 70.467047
" clip-path="url(#pd2f6a789fb)" style="fill: none; stroke: #b0b0b0; stroke-opacity: 0.16; stroke-width: 0.8; stroke-linecap: square"/>
     </g>
     <g id="line2d_8">
      <g>
       <use xlink:href="#m75117441f8" x="212.451708" y="266.073656" style="stroke: #000000; stroke-width: 0.8"/>
      </g>
     </g>
     <g id="text_4">
      <!-- $\mathdefault{2^{14}}$ -->
      <g transform="translate(204.601708 282.373656) scale(0.1 -0.1)">
       <defs>
        <path id="DejaVuSans-17" d="M 2419 4116
L 825 1625
L 2419 1625
L 2419 4116
z
M 2253 4666
L 3047 4666
L 3047 1625
L 3713 1625
L 3713 1100
L 3047 1100
L 3047 0
L 2419 0
L 2419 1100
L 313 1100
L 313 1709
L 2253 4666
z
" transform="scale(0.015625)"/>
       </defs>
       <use xlink:href="#DejaVuSans-15" transform="translate(0 0.665625)"/>
       <use xlink:href="#DejaVuSans-14" transform="translate(64.580078 41.965625) scale(0.7)"/>
       <use xlink:href="#DejaVuSans-17" transform="translate(109.116211 41.965625) scale(0.7)"/>
      </g>
     </g>
    </g>
    <g id="xtick_5">
     <g id="line2d_9">
      <path d="M 265.898441 266.073656
L 265.898441 70.467047
" clip-path="url(#pd2f6a789fb)" style="fill: none; stroke: #b0b0b0; stroke-opacity: 0.16; stroke-width: 0.8; stroke-linecap: square"/>
     </g>
     <g id="line2d_10">
      <g>
       <use xlink:href="#m75117441f8" x="265.898441" y="266.073656" style="stroke: #000000; stroke-width: 0.8"/>
      </g>
     </g>
     <g id="text_5">
      <!-- $\mathdefault{2^{16}}$ -->
      <g transform="translate(258.048441 282.473656) scale(0.1 -0.1)">
       <defs>
        <path id="DejaVuSans-19" d="M 2113 2584
Q 1688 2584 1439 2293
Q 1191 2003 1191 1497
Q 1191 994 1439 701
Q 1688 409 2113 409
Q 2538 409 2786 701
Q 3034 994 3034 1497
Q 3034 2003 2786 2293
Q 2538 2584 2113 2584
z
M 3366 4563
L 3366 3988
Q 3128 4100 2886 4159
Q 2644 4219 2406 4219
Q 1781 4219 1451 3797
Q 1122 3375 1075 2522
Q 1259 2794 1537 2939
Q 1816 3084 2150 3084
Q 2853 3084 3261 2657
Q 3669 2231 3669 1497
Q 3669 778 3244 343
Q 2819 -91 2113 -91
Q 1303 -91 875 529
Q 447 1150 447 2328
Q 447 3434 972 4092
Q 1497 4750 2381 4750
Q 2619 4750 2861 4703
Q 3103 4656 3366 4563
z
" transform="scale(0.015625)"/>
       </defs>
       <use xlink:href="#DejaVuSans-15" transform="translate(0 0.746875)"/>
       <use xlink:href="#DejaVuSans-14" transform="translate(64.580078 42.046875) scale(0.7)"/>
       <use xlink:href="#DejaVuSans-19" transform="translate(109.116211 42.046875) scale(0.7)"/>
      </g>
     </g>
    </g>
    <g id="xtick_6">
     <g id="line2d_11">
      <path d="M 319.345174 266.073656
L 319.345174 70.467047
" clip-path="url(#pd2f6a789fb)" style="fill: none; stroke: #b0b0b0; stroke-opacity: 0.16; stroke-width: 0.8; stroke-linecap: square"/>
     </g>
     <g id="line2d_12">
      <g>
       <use xlink:href="#m75117441f8" x="319.345174" y="266.073656" style="stroke: #000000; stroke-width: 0.8"/>
      </g>
     </g>
     <g id="text_6">
      <!-- $\mathdefault{2^{18}}$ -->
      <g transform="translate(311.495174 282.473656) scale(0.1 -0.1)">
       <use xlink:href="#DejaVuSans-15" transform="translate(0 0.746875)"/>
       <use xlink:href="#DejaVuSans-14" transform="translate(64.580078 42.046875) scale(0.7)"/>
       <use xlink:href="#DejaVuSans-1b" transform="translate(109.116211 42.046875) scale(0.7)"/>
      </g>
     </g>
    </g>
    <g id="xtick_7">
     <g id="line2d_13">
      <path d="M 372.791907 266.073656
L 372.791907 70.467047
" clip-path="url(#pd2f6a789fb)" style="fill: none; stroke: #b0b0b0; stroke-opacity: 0.16; stroke-width: 0.8; stroke-linecap: square"/>
     </g>
     <g id="line2d_14">
      <g>
       <use xlink:href="#m75117441f8" x="372.791907" y="266.073656" style="stroke: #000000; stroke-width: 0.8"/>
      </g>
     </g>
     <g id="text_7">
      <!-- $\mathdefault{2^{20}}$ -->
      <g transform="translate(364.941907 282.473656) scale(0.1 -0.1)">
       <use xlink:href="#DejaVuSans-15" transform="translate(0 0.746875)"/>
       <use xlink:href="#DejaVuSans-15" transform="translate(64.580078 42.046875) scale(0.7)"/>
       <use xlink:href="#DejaVuSans-13" transform="translate(109.116211 42.046875) scale(0.7)"/>
      </g>
     </g>
    </g>
    <g id="xtick_8">
     <g id="line2d_15">
      <path d="M 426.23864 266.073656
L 426.23864 70.467047
" clip-path="url(#pd2f6a789fb)" style="fill: none; stroke: #b0b0b0; stroke-opacity: 0.16; stroke-width: 0.8; stroke-linecap: square"/>
     </g>
     <g id="line2d_16">
      <g>
       <use xlink:href="#m75117441f8" x="426.23864" y="266.073656" style="stroke: #000000; stroke-width: 0.8"/>
      </g>
     </g>
     <g id="text_8">
      <!-- $\mathdefault{2^{22}}$ -->
      <g transform="translate(418.38864 282.473656) scale(0.1 -0.1)">
       <use xlink:href="#DejaVuSans-15" transform="translate(0 0.746875)"/>
       <use xlink:href="#DejaVuSans-15" transform="translate(64.580078 42.046875) scale(0.7)"/>
       <use xlink:href="#DejaVuSans-15" transform="translate(109.116211 42.046875) scale(0.7)"/>
      </g>
     </g>
    </g>
    <g id="text_9">
     <!-- Atoms N -->
     <g transform="translate(231.379727 296.473656) scale(0.1 -0.1)">
      <defs>
       <path id="DejaVuSans-24" d="M 2188 4044
L 1331 1722
L 3047 1722
L 2188 4044
z
M 1831 4666
L 2547 4666
L 4325 0
L 3669 0
L 3244 1197
L 1141 1197
L 716 0
L 50 0
L 1831 4666
z
" transform="scale(0.015625)"/>
       <path id="DejaVuSans-57" d="M 1172 4494
L 1172 3500
L 2356 3500
L 2356 3053
L 1172 3053
L 1172 1153
Q 1172 725 1289 603
Q 1406 481 1766 481
L 2356 481
L 2356 0
L 1766 0
Q 1100 0 847 248
Q 594 497 594 1153
L 594 3053
L 172 3053
L 172 3500
L 594 3500
L 594 4494
L 1172 4494
z
" transform="scale(0.015625)"/>
       <path id="DejaVuSans-52" d="M 1959 3097
Q 1497 3097 1228 2736
Q 959 2375 959 1747
Q 959 1119 1226 758
Q 1494 397 1959 397
Q 2419 397 2687 759
Q 2956 1122 2956 1747
Q 2956 2369 2687 2733
Q 2419 3097 1959 3097
z
M 1959 3584
Q 2709 3584 3137 3096
Q 3566 2609 3566 1747
Q 3566 888 3137 398
Q 2709 -91 1959 -91
Q 1206 -91 779 398
Q 353 888 353 1747
Q 353 2609 779 3096
Q 1206 3584 1959 3584
z
" transform="scale(0.015625)"/>
       <path id="DejaVuSans-50" d="M 3328 2828
Q 3544 3216 3844 3400
Q 4144 3584 4550 3584
Q 5097 3584 5394 3201
Q 5691 2819 5691 2113
L 5691 0
L 5113 0
L 5113 2094
Q 5113 2597 4934 2840
Q 4756 3084 4391 3084
Q 3944 3084 3684 2787
Q 3425 2491 3425 1978
L 3425 0
L 2847 0
L 2847 2094
Q 2847 2600 2669 2842
Q 2491 3084 2119 3084
Q 1678 3084 1418 2786
Q 1159 2488 1159 1978
L 1159 0
L 581 0
L 581 3500
L 1159 3500
L 1159 2956
Q 1356 3278 1631 3431
Q 1906 3584 2284 3584
Q 2666 3584 2933 3390
Q 3200 3197 3328 2828
z
" transform="scale(0.015625)"/>
       <path id="DejaVuSans-56" d="M 2834 3397
L 2834 2853
Q 2591 2978 2328 3040
Q 2066 3103 1784 3103
Q 1356 3103 1142 2972
Q 928 2841 928 2578
Q 928 2378 1081 2264
Q 1234 2150 1697 2047
L 1894 2003
Q 2506 1872 2764 1633
Q 3022 1394 3022 966
Q 3022 478 2636 193
Q 2250 -91 1575 -91
Q 1294 -91 989 -36
Q 684 19 347 128
L 347 722
Q 666 556 975 473
Q 1284 391 1588 391
Q 1994 391 2212 530
Q 2431 669 2431 922
Q 2431 1156 2273 1281
Q 2116 1406 1581 1522
L 1381 1569
Q 847 1681 609 1914
Q 372 2147 372 2553
Q 372 3047 722 3315
Q 1072 3584 1716 3584
Q 2034 3584 2315 3537
Q 2597 3491 2834 3397
z
" transform="scale(0.015625)"/>
       <path id="DejaVuSans-3" transform="scale(0.015625)"/>
       <path id="DejaVuSans-31" d="M 628 4666
L 1478 4666
L 3547 763
L 3547 4666
L 4159 4666
L 4159 0
L 3309 0
L 1241 3903
L 1241 0
L 628 0
L 628 4666
z
" transform="scale(0.015625)"/>
      </defs>
      <use xlink:href="#DejaVuSans-24"/>
      <use xlink:href="#DejaVuSans-57" transform="translate(66.65625 0)"/>
      <use xlink:href="#DejaVuSans-52" transform="translate(105.859375 0)"/>
      <use xlink:href="#DejaVuSans-50" transform="translate(167.046875 0)"/>
      <use xlink:href="#DejaVuSans-56" transform="translate(264.453125 0)"/>
      <use xlink:href="#DejaVuSans-3" transform="translate(316.546875 0)"/>
      <use xlink:href="#DejaVuSans-31" transform="translate(348.328125 0)"/>
     </g>
    </g>
   </g>
   <g id="matplotlib.axis_2">
    <g id="ytick_1">
     <g id="line2d_17">
      <path d="M 45.082344 261.683916
L 459.991172 261.683916
" clip-path="url(#pd2f6a789fb)" style="fill: none; stroke: #b0b0b0; stroke-opacity: 0.16; stroke-width: 0.8; stroke-linecap: square"/>
     </g>
     <g id="line2d_18">
      <defs>
       <path id="me847236257" d="M 0 0
L -3.5 0
" style="stroke: #000000; stroke-width: 0.8"/>
      </defs>
      <g>
       <use xlink:href="#me847236257" x="45.082344" y="261.683916" style="stroke: #000000; stroke-width: 0.8"/>
      </g>
     </g>
     <g id="text_10">
      <!-- 0 -->
      <g transform="translate(31.719844 265.482744) scale(0.1 -0.1)">
       <use xlink:href="#DejaVuSans-13"/>
      </g>
     </g>
    </g>
    <g id="ytick_2">
     <g id="line2d_19">
      <path d="M 45.082344 220.637778
L 459.991172 220.637778
" clip-path="url(#pd2f6a789fb)" style="fill: none; stroke: #b0b0b0; stroke-opacity: 0.16; stroke-width: 0.8; stroke-linecap: square"/>
     </g>
     <g id="line2d_20">
      <g>
       <use xlink:href="#me847236257" x="45.082344" y="220.637778" style="stroke: #000000; stroke-width: 0.8"/>
      </g>
     </g>
     <g id="text_11">
      <!-- 5 -->
      <g transform="translate(31.719844 224.436606) scale(0.1 -0.1)">
       <defs>
        <path id="DejaVuSans-18" d="M 691 4666
L 3169 4666
L 3169 4134
L 1269 4134
L 1269 2991
Q 1406 3038 1543 3061
Q 1681 3084 1819 3084
Q 2600 3084 3056 2656
Q 3513 2228 3513 1497
Q 3513 744 3044 326
Q 2575 -91 1722 -91
Q 1428 -91 1123 -41
Q 819 9 494 109
L 494 744
Q 775 591 1075 516
Q 1375 441 1709 441
Q 2250 441 2565 725
Q 2881 1009 2881 1497
Q 2881 1984 2565 2268
Q 2250 2553 1709 2553
Q 1456 2553 1204 2497
Q 953 2441 691 2322
L 691 4666
z
" transform="scale(0.015625)"/>
       </defs>
       <use xlink:href="#DejaVuSans-18"/>
      </g>
     </g>
    </g>
    <g id="ytick_3">
     <g id="line2d_21">
      <path d="M 45.082344 179.591641
L 459.991172 179.591641
" clip-path="url(#pd2f6a789fb)" style="fill: none; stroke: #b0b0b0; stroke-opacity: 0.16; stroke-width: 0.8; stroke-linecap: square"/>
     </g>
     <g id="line2d_22">
      <g>
       <use xlink:href="#me847236257" x="45.082344" y="179.591641" style="stroke: #000000; stroke-width: 0.8"/>
      </g>
     </g>
     <g id="text_12">
      <!-- 10 -->
      <g transform="translate(25.357344 183.390469) scale(0.1 -0.1)">
       <use xlink:href="#DejaVuSans-14"/>
       <use xlink:href="#DejaVuSans-13" transform="translate(63.625 0)"/>
      </g>
     </g>
    </g>
    <g id="ytick_4">
     <g id="line2d_23">
      <path d="M 45.082344 138.545503
L 459.991172 138.545503
" clip-path="url(#pd2f6a789fb)" style="fill: none; stroke: #b0b0b0; stroke-opacity: 0.16; stroke-width: 0.8; stroke-linecap: square"/>
     </g>
     <g id="line2d_24">
      <g>
       <use xlink:href="#me847236257" x="45.082344" y="138.545503" style="stroke: #000000; stroke-width: 0.8"/>
      </g>
     </g>
     <g id="text_13">
      <!-- 15 -->
      <g transform="translate(25.357344 142.344331) scale(0.1 -0.1)">
       <use xlink:href="#DejaVuSans-14"/>
       <use xlink:href="#DejaVuSans-18" transform="translate(63.625 0)"/>
      </g>
     </g>
    </g>
    <g id="ytick_5">
     <g id="line2d_25">
      <path d="M 45.082344 97.499366
L 459.991172 97.499366
" clip-path="url(#pd2f6a789fb)" style="fill: none; stroke: #b0b0b0; stroke-opacity: 0.16; stroke-width: 0.8; stroke-linecap: square"/>
     </g>
     <g id="line2d_26">
      <g>
       <use xlink:href="#me847236257" x="45.082344" y="97.499366" style="stroke: #000000; stroke-width: 0.8"/>
      </g>
     </g>
     <g id="text_14">
      <!-- 20 -->
      <g transform="translate(25.357344 101.298194) scale(0.1 -0.1)">
       <use xlink:href="#DejaVuSans-15"/>
       <use xlink:href="#DejaVuSans-13" transform="translate(63.625 0)"/>
      </g>
     </g>
    </g>
    <g id="text_15">
     <!-- Native Torch time / FastEq time -->
     <g transform="translate(18.955 246.189102) rotate(-90) scale(0.1 -0.1)">
      <defs>
       <path id="DejaVuSans-44" d="M 2194 1759
Q 1497 1759 1228 1600
Q 959 1441 959 1056
Q 959 750 1161 570
Q 1363 391 1709 391
Q 2188 391 2477 730
Q 2766 1069 2766 1631
L 2766 1759
L 2194 1759
z
M 3341 1997
L 3341 0
L 2766 0
L 2766 531
Q 2569 213 2275 61
Q 1981 -91 1556 -91
Q 1019 -91 701 211
Q 384 513 384 1019
Q 384 1609 779 1909
Q 1175 2209 1959 2209
L 2766 2209
L 2766 2266
Q 2766 2663 2505 2880
Q 2244 3097 1772 3097
Q 1472 3097 1187 3025
Q 903 2953 641 2809
L 641 3341
Q 956 3463 1253 3523
Q 1550 3584 1831 3584
Q 2591 3584 2966 3190
Q 3341 2797 3341 1997
z
" transform="scale(0.015625)"/>
       <path id="DejaVuSans-4c" d="M 603 3500
L 1178 3500
L 1178 0
L 603 0
L 603 3500
z
M 603 4863
L 1178 4863
L 1178 4134
L 603 4134
L 603 4863
z
" transform="scale(0.015625)"/>
       <path id="DejaVuSans-59" d="M 191 3500
L 800 3500
L 1894 563
L 2988 3500
L 3597 3500
L 2284 0
L 1503 0
L 191 3500
z
" transform="scale(0.015625)"/>
       <path id="DejaVuSans-48" d="M 3597 1894
L 3597 1613
L 953 1613
Q 991 1019 1311 708
Q 1631 397 2203 397
Q 2534 397 2845 478
Q 3156 559 3463 722
L 3463 178
Q 3153 47 2828 -22
Q 2503 -91 2169 -91
Q 1331 -91 842 396
Q 353 884 353 1716
Q 353 2575 817 3079
Q 1281 3584 2069 3584
Q 2775 3584 3186 3129
Q 3597 2675 3597 1894
z
M 3022 2063
Q 3016 2534 2758 2815
Q 2500 3097 2075 3097
Q 1594 3097 1305 2825
Q 1016 2553 972 2059
L 3022 2063
z
" transform="scale(0.015625)"/>
       <path id="DejaVuSans-37" d="M -19 4666
L 3928 4666
L 3928 4134
L 2272 4134
L 2272 0
L 1638 0
L 1638 4134
L -19 4134
L -19 4666
z
" transform="scale(0.015625)"/>
       <path id="DejaVuSans-55" d="M 2631 2963
Q 2534 3019 2420 3045
Q 2306 3072 2169 3072
Q 1681 3072 1420 2755
Q 1159 2438 1159 1844
L 1159 0
L 581 0
L 581 3500
L 1159 3500
L 1159 2956
Q 1341 3275 1631 3429
Q 1922 3584 2338 3584
Q 2397 3584 2469 3576
Q 2541 3569 2628 3553
L 2631 2963
z
" transform="scale(0.015625)"/>
       <path id="DejaVuSans-46" d="M 3122 3366
L 3122 2828
Q 2878 2963 2633 3030
Q 2388 3097 2138 3097
Q 1578 3097 1268 2742
Q 959 2388 959 1747
Q 959 1106 1268 751
Q 1578 397 2138 397
Q 2388 397 2633 464
Q 2878 531 3122 666
L 3122 134
Q 2881 22 2623 -34
Q 2366 -91 2075 -91
Q 1284 -91 818 406
Q 353 903 353 1747
Q 353 2603 823 3093
Q 1294 3584 2113 3584
Q 2378 3584 2631 3529
Q 2884 3475 3122 3366
z
" transform="scale(0.015625)"/>
       <path id="DejaVuSans-4b" d="M 3513 2113
L 3513 0
L 2938 0
L 2938 2094
Q 2938 2591 2744 2837
Q 2550 3084 2163 3084
Q 1697 3084 1428 2787
Q 1159 2491 1159 1978
L 1159 0
L 581 0
L 581 4863
L 1159 4863
L 1159 2956
Q 1366 3272 1645 3428
Q 1925 3584 2291 3584
Q 2894 3584 3203 3211
Q 3513 2838 3513 2113
z
" transform="scale(0.015625)"/>
       <path id="DejaVuSans-12" d="M 1625 4666
L 2156 4666
L 531 -594
L 0 -594
L 1625 4666
z
" transform="scale(0.015625)"/>
       <path id="DejaVuSans-29" d="M 628 4666
L 3309 4666
L 3309 4134
L 1259 4134
L 1259 2759
L 3109 2759
L 3109 2228
L 1259 2228
L 1259 0
L 628 0
L 628 4666
z
" transform="scale(0.015625)"/>
       <path id="DejaVuSans-28" d="M 628 4666
L 3578 4666
L 3578 4134
L 1259 4134
L 1259 2753
L 3481 2753
L 3481 2222
L 1259 2222
L 1259 531
L 3634 531
L 3634 0
L 628 0
L 628 4666
z
" transform="scale(0.015625)"/>
       <path id="DejaVuSans-54" d="M 947 1747
Q 947 1113 1208 752
Q 1469 391 1925 391
Q 2381 391 2643 752
Q 2906 1113 2906 1747
Q 2906 2381 2643 2742
Q 2381 3103 1925 3103
Q 1469 3103 1208 2742
Q 947 2381 947 1747
z
M 2906 525
Q 2725 213 2448 61
Q 2172 -91 1784 -91
Q 1150 -91 751 415
Q 353 922 353 1747
Q 353 2572 751 3078
Q 1150 3584 1784 3584
Q 2172 3584 2448 3432
Q 2725 3281 2906 2969
L 2906 3500
L 3481 3500
L 3481 -1331
L 2906 -1331
L 2906 525
z
" transform="scale(0.015625)"/>
      </defs>
      <use xlink:href="#DejaVuSans-31"/>
      <use xlink:href="#DejaVuSans-44" transform="translate(74.8125 0)"/>
      <use xlink:href="#DejaVuSans-57" transform="translate(136.09375 0)"/>
      <use xlink:href="#DejaVuSans-4c" transform="translate(175.296875 0)"/>
      <use xlink:href="#DejaVuSans-59" transform="translate(203.078125 0)"/>
      <use xlink:href="#DejaVuSans-48" transform="translate(262.265625 0)"/>
      <use xlink:href="#DejaVuSans-3" transform="translate(323.796875 0)"/>
      <use xlink:href="#DejaVuSans-37" transform="translate(355.578125 0)"/>
      <use xlink:href="#DejaVuSans-52" transform="translate(399.671875 0)"/>
      <use xlink:href="#DejaVuSans-55" transform="translate(460.859375 0)"/>
      <use xlink:href="#DejaVuSans-46" transform="translate(499.765625 0)"/>
      <use xlink:href="#DejaVuSans-4b" transform="translate(554.75 0)"/>
      <use xlink:href="#DejaVuSans-3" transform="translate(618.125 0)"/>
      <use xlink:href="#DejaVuSans-57" transform="translate(649.90625 0)"/>
      <use xlink:href="#DejaVuSans-4c" transform="translate(689.109375 0)"/>
      <use xlink:href="#DejaVuSans-50" transform="translate(716.890625 0)"/>
      <use xlink:href="#DejaVuSans-48" transform="translate(814.296875 0)"/>
      <use xlink:href="#DejaVuSans-3" transform="translate(875.828125 0)"/>
      <use xlink:href="#DejaVuSans-12" transform="translate(907.609375 0)"/>
      <use xlink:href="#DejaVuSans-3" transform="translate(941.296875 0)"/>
      <use xlink:href="#DejaVuSans-29" transform="translate(973.078125 0)"/>
      <use xlink:href="#DejaVuSans-44" transform="translate(1021.421875 0)"/>
      <use xlink:href="#DejaVuSans-56" transform="translate(1082.703125 0)"/>
      <use xlink:href="#DejaVuSans-57" transform="translate(1134.796875 0)"/>
      <use xlink:href="#DejaVuSans-28" transform="translate(1174 0)"/>
      <use xlink:href="#DejaVuSans-54" transform="translate(1237.1875 0)"/>
      <use xlink:href="#DejaVuSans-3" transform="translate(1300.671875 0)"/>
      <use xlink:href="#DejaVuSans-57" transform="translate(1332.453125 0)"/>
      <use xlink:href="#DejaVuSans-4c" transform="translate(1371.65625 0)"/>
      <use xlink:href="#DejaVuSans-50" transform="translate(1399.4375 0)"/>
      <use xlink:href="#DejaVuSans-48" transform="translate(1496.84375 0)"/>
     </g>
    </g>
   </g>
   <g id="line2d_27">
    <path d="M 52.111509 244.425642
L 78.834875 236.099317
L 105.558242 245.808031
L 132.281608 234.227703
L 159.004975 222.116591
L 185.728341 203.764009
L 212.451708 192.072293
L 239.175075 152.061634
L 265.898441 123.552431
L 292.621808 102.914295
L 319.345174 90.824493
L 346.068541 82.810574
L 372.791907 81.145094
L 399.515274 79.499537
L 426.23864 79.358256
L 452.962007 79.568663
" clip-path="url(#pd2f6a789fb)" style="fill: none; stroke: #245f9a; stroke-width: 1.5; stroke-linecap: square"/>
    <defs>
     <path id="m075fba7885" d="M 0 1.5
C 0.397805 1.5 0.77937 1.341951 1.06066 1.06066
C 1.341951 0.77937 1.5 0.397805 1.5 0
C 1.5 -0.397805 1.341951 -0.77937 1.06066 -1.06066
C 0.77937 -1.341951 0.397805 -1.5 0 -1.5
C -0.397805 -1.5 -0.77937 -1.341951 -1.06066 -1.06066
C -1.341951 -0.77937 -1.5 -0.397805 -1.5 0
C -1.5 0.397805 -1.341951 0.77937 -1.06066 1.06066
C -0.77937 1.341951 -0.397805 1.5 0 1.5
z
" style="stroke: #245f9a"/>
    </defs>
    <g clip-path="url(#pd2f6a789fb)">
     <use xlink:href="#m075fba7885" x="52.111509" y="244.425642" style="fill: #245f9a; stroke: #245f9a"/>
     <use xlink:href="#m075fba7885" x="78.834875" y="236.099317" style="fill: #245f9a; stroke: #245f9a"/>
     <use xlink:href="#m075fba7885" x="105.558242" y="245.808031" style="fill: #245f9a; stroke: #245f9a"/>
     <use xlink:href="#m075fba7885" x="132.281608" y="234.227703" style="fill: #245f9a; stroke: #245f9a"/>
     <use xlink:href="#m075fba7885" x="159.004975" y="222.116591" style="fill: #245f9a; stroke: #245f9a"/>
     <use xlink:href="#m075fba7885" x="185.728341" y="203.764009" style="fill: #245f9a; stroke: #245f9a"/>
     <use xlink:href="#m075fba7885" x="212.451708" y="192.072293" style="fill: #245f9a; stroke: #245f9a"/>
     <use xlink:href="#m075fba7885" x="239.175075" y="152.061634" style="fill: #245f9a; stroke: #245f9a"/>
     <use xlink:href="#m075fba7885" x="265.898441" y="123.552431" style="fill: #245f9a; stroke: #245f9a"/>
     <use xlink:href="#m075fba7885" x="292.621808" y="102.914295" style="fill: #245f9a; stroke: #245f9a"/>
     <use xlink:href="#m075fba7885" x="319.345174" y="90.824493" style="fill: #245f9a; stroke: #245f9a"/>
     <use xlink:href="#m075fba7885" x="346.068541" y="82.810574" style="fill: #245f9a; stroke: #245f9a"/>
     <use xlink:href="#m075fba7885" x="372.791907" y="81.145094" style="fill: #245f9a; stroke: #245f9a"/>
     <use xlink:href="#m075fba7885" x="399.515274" y="79.499537" style="fill: #245f9a; stroke: #245f9a"/>
     <use xlink:href="#m075fba7885" x="426.23864" y="79.358256" style="fill: #245f9a; stroke: #245f9a"/>
     <use xlink:href="#m075fba7885" x="452.962007" y="79.568663" style="fill: #245f9a; stroke: #245f9a"/>
    </g>
   </g>
   <g id="line2d_28">
    <path d="M 52.111509 248.978835
L 78.834875 244.256762
L 105.558242 253.529212
L 132.281608 251.510164
L 159.004975 251.548399
L 185.728341 235.336363
L 212.451708 215.465399
L 239.175075 191.444828
L 265.898441 178.12519
L 292.621808 180.265575
L 319.345174 178.365277
L 346.068541 179.572839
L 372.791907 179.55973
L 399.515274 179.929708
L 426.23864 179.958427
" clip-path="url(#pd2f6a789fb)" style="fill: none; stroke: #c66b20; stroke-width: 1.5; stroke-linecap: square"/>
    <defs>
     <path id="m05ddceef45" d="M 0 1.5
C 0.397805 1.5 0.77937 1.341951 1.06066 1.06066
C 1.341951 0.77937 1.5 0.397805 1.5 0
C 1.5 -0.397805 1.341951 -0.77937 1.06066 -1.06066
C 0.77937 -1.341951 0.397805 -1.5 0 -1.5
C -0.397805 -1.5 -0.77937 -1.341951 -1.06066 -1.06066
C -1.341951 -0.77937 -1.5 -0.397805 -1.5 0
C -1.5 0.397805 -1.341951 0.77937 -1.06066 1.06066
C -0.77937 1.341951 -0.397805 1.5 0 1.5
z
" style="stroke: #c66b20"/>
    </defs>
    <g clip-path="url(#pd2f6a789fb)">
     <use xlink:href="#m05ddceef45" x="52.111509" y="248.978835" style="fill: #c66b20; stroke: #c66b20"/>
     <use xlink:href="#m05ddceef45" x="78.834875" y="244.256762" style="fill: #c66b20; stroke: #c66b20"/>
     <use xlink:href="#m05ddceef45" x="105.558242" y="253.529212" style="fill: #c66b20; stroke: #c66b20"/>
     <use xlink:href="#m05ddceef45" x="132.281608" y="251.510164" style="fill: #c66b20; stroke: #c66b20"/>
     <use xlink:href="#m05ddceef45" x="159.004975" y="251.548399" style="fill: #c66b20; stroke: #c66b20"/>
     <use xlink:href="#m05ddceef45" x="185.728341" y="235.336363" style="fill: #c66b20; stroke: #c66b20"/>
     <use xlink:href="#m05ddceef45" x="212.451708" y="215.465399" style="fill: #c66b20; stroke: #c66b20"/>
     <use xlink:href="#m05ddceef45" x="239.175075" y="191.444828" style="fill: #c66b20; stroke: #c66b20"/>
     <use xlink:href="#m05ddceef45" x="265.898441" y="178.12519" style="fill: #c66b20; stroke: #c66b20"/>
     <use xlink:href="#m05ddceef45" x="292.621808" y="180.265575" style="fill: #c66b20; stroke: #c66b20"/>
     <use xlink:href="#m05ddceef45" x="319.345174" y="178.365277" style="fill: #c66b20; stroke: #c66b20"/>
     <use xlink:href="#m05ddceef45" x="346.068541" y="179.572839" style="fill: #c66b20; stroke: #c66b20"/>
     <use xlink:href="#m05ddceef45" x="372.791907" y="179.55973" style="fill: #c66b20; stroke: #c66b20"/>
     <use xlink:href="#m05ddceef45" x="399.515274" y="179.929708" style="fill: #c66b20; stroke: #c66b20"/>
     <use xlink:href="#m05ddceef45" x="426.23864" y="179.958427" style="fill: #c66b20; stroke: #c66b20"/>
    </g>
   </g>
   <g id="line2d_29">
    <path d="M 45.082344 253.474688
L 459.991172 253.474688
" clip-path="url(#pd2f6a789fb)" style="fill: none; stroke-dasharray: 0.8,1.32; stroke-dashoffset: 0; stroke: #555555; stroke-width: 0.8"/>
   </g>
   <g id="patch_3">
    <path d="M 45.082344 266.073656
L 45.082344 70.467047
" style="fill: none; stroke: #000000; stroke-width: 0.8; stroke-linejoin: miter; stroke-linecap: square"/>
   </g>
   <g id="patch_4">
    <path d="M 45.082344 266.073656
L 459.991172 266.073656
" style="fill: none; stroke: #000000; stroke-width: 0.8; stroke-linejoin: miter; stroke-linecap: square"/>
   </g>
   <g id="text_16">
    <!-- H100 / CUDA (2026-09-15) -->
    <g transform="translate(172.078633 64.467047) scale(0.12 -0.12)">
     <defs>
      <path id="DejaVuSans-2b" d="M 628 4666
L 1259 4666
L 1259 2753
L 3553 2753
L 3553 4666
L 4184 4666
L 4184 0
L 3553 0
L 3553 2222
L 1259 2222
L 1259 0
L 628 0
L 628 4666
z
" transform="scale(0.015625)"/>
      <path id="DejaVuSans-26" d="M 4122 4306
L 4122 3641
Q 3803 3938 3442 4084
Q 3081 4231 2675 4231
Q 1875 4231 1450 3742
Q 1025 3253 1025 2328
Q 1025 1406 1450 917
Q 1875 428 2675 428
Q 3081 428 3442 575
Q 3803 722 4122 1019
L 4122 359
Q 3791 134 3420 21
Q 3050 -91 2638 -91
Q 1578 -91 968 557
Q 359 1206 359 2328
Q 359 3453 968 4101
Q 1578 4750 2638 4750
Q 3056 4750 3426 4639
Q 3797 4528 4122 4306
z
" transform="scale(0.015625)"/>
      <path id="DejaVuSans-38" d="M 556 4666
L 1191 4666
L 1191 1831
Q 1191 1081 1462 751
Q 1734 422 2344 422
Q 2950 422 3222 751
Q 3494 1081 3494 1831
L 3494 4666
L 4128 4666
L 4128 1753
Q 4128 841 3676 375
Q 3225 -91 2344 -91
Q 1459 -91 1007 375
Q 556 841 556 1753
L 556 4666
z
" transform="scale(0.015625)"/>
      <path id="DejaVuSans-27" d="M 1259 4147
L 1259 519
L 2022 519
Q 2988 519 3436 956
Q 3884 1394 3884 2338
Q 3884 3275 3436 3711
Q 2988 4147 2022 4147
L 1259 4147
z
M 628 4666
L 1925 4666
Q 3281 4666 3915 4102
Q 4550 3538 4550 2338
Q 4550 1131 3912 565
Q 3275 0 1925 0
L 628 0
L 628 4666
z
" transform="scale(0.015625)"/>
      <path id="DejaVuSans-b" d="M 1984 4856
Q 1566 4138 1362 3434
Q 1159 2731 1159 2009
Q 1159 1288 1364 580
Q 1569 -128 1984 -844
L 1484 -844
Q 1016 -109 783 600
Q 550 1309 550 2009
Q 550 2706 781 3412
Q 1013 4119 1484 4856
L 1984 4856
z
" transform="scale(0.015625)"/>
      <path id="DejaVuSans-10" d="M 313 2009
L 1997 2009
L 1997 1497
L 313 1497
L 313 2009
z
" transform="scale(0.015625)"/>
      <path id="DejaVuSans-1c" d="M 703 97
L 703 672
Q 941 559 1184 500
Q 1428 441 1663 441
Q 2288 441 2617 861
Q 2947 1281 2994 2138
Q 2813 1869 2534 1725
Q 2256 1581 1919 1581
Q 1219 1581 811 2004
Q 403 2428 403 3163
Q 403 3881 828 4315
Q 1253 4750 1959 4750
Q 2769 4750 3195 4129
Q 3622 3509 3622 2328
Q 3622 1225 3098 567
Q 2575 -91 1691 -91
Q 1453 -91 1209 -44
Q 966 3 703 97
z
M 1959 2075
Q 2384 2075 2632 2365
Q 2881 2656 2881 3163
Q 2881 3666 2632 3958
Q 2384 4250 1959 4250
Q 1534 4250 1286 3958
Q 1038 3666 1038 3163
Q 1038 2656 1286 2365
Q 1534 2075 1959 2075
z
" transform="scale(0.015625)"/>
      <path id="DejaVuSans-c" d="M 513 4856
L 1013 4856
Q 1481 4119 1714 3412
Q 1947 2706 1947 2009
Q 1947 1309 1714 600
Q 1481 -109 1013 -844
L 513 -844
Q 928 -128 1133 580
Q 1338 1288 1338 2009
Q 1338 2731 1133 3434
Q 928 4138 513 4856
z
" transform="scale(0.015625)"/>
     </defs>
     <use xlink:href="#DejaVuSans-2b"/>
     <use xlink:href="#DejaVuSans-14" transform="translate(75.203125 0)"/>
     <use xlink:href="#DejaVuSans-13" transform="translate(138.828125 0)"/>
     <use xlink:href="#DejaVuSans-13" transform="translate(202.453125 0)"/>
     <use xlink:href="#DejaVuSans-3" transform="translate(266.078125 0)"/>
     <use xlink:href="#DejaVuSans-12" transform="translate(297.859375 0)"/>
     <use xlink:href="#DejaVuSans-3" transform="translate(331.546875 0)"/>
     <use xlink:href="#DejaVuSans-26" transform="translate(363.328125 0)"/>
     <use xlink:href="#DejaVuSans-38" transform="translate(433.15625 0)"/>
     <use xlink:href="#DejaVuSans-27" transform="translate(506.34375 0)"/>
     <use xlink:href="#DejaVuSans-24" transform="translate(581.59375 0)"/>
     <use xlink:href="#DejaVuSans-3" transform="translate(650 0)"/>
     <use xlink:href="#DejaVuSans-b" transform="translate(681.78125 0)"/>
     <use xlink:href="#DejaVuSans-15" transform="translate(720.796875 0)"/>
     <use xlink:href="#DejaVuSans-13" transform="translate(784.421875 0)"/>
     <use xlink:href="#DejaVuSans-15" transform="translate(848.046875 0)"/>
     <use xlink:href="#DejaVuSans-19" transform="translate(911.671875 0)"/>
     <use xlink:href="#DejaVuSans-10" transform="translate(975.296875 0)"/>
     <use xlink:href="#DejaVuSans-13" transform="translate(1011.375 0)"/>
     <use xlink:href="#DejaVuSans-1c" transform="translate(1075 0)"/>
     <use xlink:href="#DejaVuSans-10" transform="translate(1138.625 0)"/>
     <use xlink:href="#DejaVuSans-14" transform="translate(1174.703125 0)"/>
     <use xlink:href="#DejaVuSans-18" transform="translate(1238.328125 0)"/>
     <use xlink:href="#DejaVuSans-c" transform="translate(1301.953125 0)"/>
    </g>
   </g>
   <g id="legend_1">
    <g id="line2d_30">
     <path d="M 52.282344 80.945797
L 60.282344 80.945797
L 68.282344 80.945797
" style="fill: none; stroke: #245f9a; stroke-width: 1.5; stroke-linecap: square"/>
     <g>
      <use xlink:href="#m075fba7885" x="60.282344" y="80.945797" style="fill: #245f9a; stroke: #245f9a"/>
     </g>
    </g>
    <g id="text_17">
     <!-- Forward -->
     <g transform="translate(74.682344 83.745797) scale(0.08 -0.08)">
      <defs>
       <path id="DejaVuSans-5a" d="M 269 3500
L 844 3500
L 1563 769
L 2278 3500
L 2956 3500
L 3675 769
L 4391 3500
L 4966 3500
L 4050 0
L 3372 0
L 2619 2869
L 1863 0
L 1184 0
L 269 3500
z
" transform="scale(0.015625)"/>
       <path id="DejaVuSans-47" d="M 2906 2969
L 2906 4863
L 3481 4863
L 3481 0
L 2906 0
L 2906 525
Q 2725 213 2448 61
Q 2172 -91 1784 -91
Q 1150 -91 751 415
Q 353 922 353 1747
Q 353 2572 751 3078
Q 1150 3584 1784 3584
Q 2172 3584 2448 3432
Q 2725 3281 2906 2969
z
M 947 1747
Q 947 1113 1208 752
Q 1469 391 1925 391
Q 2381 391 2643 752
Q 2906 1113 2906 1747
Q 2906 2381 2643 2742
Q 2381 3103 1925 3103
Q 1469 3103 1208 2742
Q 947 2381 947 1747
z
" transform="scale(0.015625)"/>
      </defs>
      <use xlink:href="#DejaVuSans-29"/>
      <use xlink:href="#DejaVuSans-52" transform="translate(53.953125 0)"/>
      <use xlink:href="#DejaVuSans-55" transform="translate(115.140625 0)"/>
      <use xlink:href="#DejaVuSans-5a" transform="translate(156.25 0)"/>
      <use xlink:href="#DejaVuSans-44" transform="translate(238.03125 0)"/>
      <use xlink:href="#DejaVuSans-55" transform="translate(299.3125 0)"/>
      <use xlink:href="#DejaVuSans-47" transform="translate(338.671875 0)"/>
     </g>
    </g>
    <g id="line2d_31">
     <path d="M 52.282344 92.946422
L 60.282344 92.946422
L 68.282344 92.946422
" style="fill: none; stroke: #c66b20; stroke-width: 1.5; stroke-linecap: square"/>
     <g>
      <use xlink:href="#m05ddceef45" x="60.282344" y="92.946422" style="fill: #c66b20; stroke: #c66b20"/>
     </g>
    </g>
    <g id="text_18">
     <!-- Forward + backward -->
     <g transform="translate(74.682344 95.746422) scale(0.08 -0.08)">
      <defs>
       <path id="DejaVuSans-e" d="M 2944 4013
L 2944 2272
L 4684 2272
L 4684 1741
L 2944 1741
L 2944 0
L 2419 0
L 2419 1741
L 678 1741
L 678 2272
L 2419 2272
L 2419 4013
L 2944 4013
z
" transform="scale(0.015625)"/>
       <path id="DejaVuSans-45" d="M 3116 1747
Q 3116 2381 2855 2742
Q 2594 3103 2138 3103
Q 1681 3103 1420 2742
Q 1159 2381 1159 1747
Q 1159 1113 1420 752
Q 1681 391 2138 391
Q 2594 391 2855 752
Q 3116 1113 3116 1747
z
M 1159 2969
Q 1341 3281 1617 3432
Q 1894 3584 2278 3584
Q 2916 3584 3314 3078
Q 3713 2572 3713 1747
Q 3713 922 3314 415
Q 2916 -91 2278 -91
Q 1894 -91 1617 61
Q 1341 213 1159 525
L 1159 0
L 581 0
L 581 4863
L 1159 4863
L 1159 2969
z
" transform="scale(0.015625)"/>
       <path id="DejaVuSans-4e" d="M 581 4863
L 1159 4863
L 1159 1991
L 2875 3500
L 3609 3500
L 1753 1863
L 3688 0
L 2938 0
L 1159 1709
L 1159 0
L 581 0
L 581 4863
z
" transform="scale(0.015625)"/>
      </defs>
      <use xlink:href="#DejaVuSans-29"/>
      <use xlink:href="#DejaVuSans-52" transform="translate(53.953125 0)"/>
      <use xlink:href="#DejaVuSans-55" transform="translate(115.140625 0)"/>
      <use xlink:href="#DejaVuSans-5a" transform="translate(156.25 0)"/>
      <use xlink:href="#DejaVuSans-44" transform="translate(238.03125 0)"/>
      <use xlink:href="#DejaVuSans-55" transform="translate(299.3125 0)"/>
      <use xlink:href="#DejaVuSans-47" transform="translate(338.671875 0)"/>
      <use xlink:href="#DejaVuSans-3" transform="translate(402.15625 0)"/>
      <use xlink:href="#DejaVuSans-e" transform="translate(433.9375 0)"/>
      <use xlink:href="#DejaVuSans-3" transform="translate(517.734375 0)"/>
      <use xlink:href="#DejaVuSans-45" transform="translate(549.515625 0)"/>
      <use xlink:href="#DejaVuSans-44" transform="translate(613 0)"/>
      <use xlink:href="#DejaVuSans-46" transform="translate(674.28125 0)"/>
      <use xlink:href="#DejaVuSans-4e" transform="translate(729.265625 0)"/>
      <use xlink:href="#DejaVuSans-5a" transform="translate(787.171875 0)"/>
      <use xlink:href="#DejaVuSans-44" transform="translate(868.953125 0)"/>
      <use xlink:href="#DejaVuSans-55" transform="translate(930.234375 0)"/>
      <use xlink:href="#DejaVuSans-47" transform="translate(969.59375 0)"/>
     </g>
    </g>
   </g>
  </g>
  <g id="axes_2">
   <g id="patch_5">
    <path d="M 474.291172 266.073656
L 889.2 266.073656
L 889.2 70.467047
L 474.291172 70.467047
z
" style="fill: #ffffff"/>
   </g>
   <g id="matplotlib.axis_3">
    <g id="xtick_9">
     <g id="line2d_32">
      <path d="M 481.320337 266.073656
L 481.320337 70.467047
" clip-path="url(#pc6221d43b4)" style="fill: none; stroke: #b0b0b0; stroke-opacity: 0.16; stroke-width: 0.8; stroke-linecap: square"/>
     </g>
     <g id="line2d_33">
      <g>
       <use xlink:href="#m75117441f8" x="481.320337" y="266.073656" style="stroke: #000000; stroke-width: 0.8"/>
      </g>
     </g>
     <g id="text_19">
      <!-- $\mathdefault{2^{8}}$ -->
      <g transform="translate(475.720337 282.473656) scale(0.1 -0.1)">
       <use xlink:href="#DejaVuSans-15" transform="translate(0 0.746875)"/>
       <use xlink:href="#DejaVuSans-1b" transform="translate(64.580078 42.046875) scale(0.7)"/>
      </g>
     </g>
    </g>
    <g id="xtick_10">
     <g id="line2d_34">
      <path d="M 534.76707 266.073656
L 534.76707 70.467047
" clip-path="url(#pc6221d43b4)" style="fill: none; stroke: #b0b0b0; stroke-opacity: 0.16; stroke-width: 0.8; stroke-linecap: square"/>
     </g>
     <g id="line2d_35">
      <g>
       <use xlink:href="#m75117441f8" x="534.76707" y="266.073656" style="stroke: #000000; stroke-width: 0.8"/>
      </g>
     </g>
     <g id="text_20">
      <!-- $\mathdefault{2^{10}}$ -->
      <g transform="translate(526.91707 282.473656) scale(0.1 -0.1)">
       <use xlink:href="#DejaVuSans-15" transform="translate(0 0.746875)"/>
       <use xlink:href="#DejaVuSans-14" transform="translate(64.580078 42.046875) scale(0.7)"/>
       <use xlink:href="#DejaVuSans-13" transform="translate(109.116211 42.046875) scale(0.7)"/>
      </g>
     </g>
    </g>
    <g id="xtick_11">
     <g id="line2d_36">
      <path d="M 588.213803 266.073656
L 588.213803 70.467047
" clip-path="url(#pc6221d43b4)" style="fill: none; stroke: #b0b0b0; stroke-opacity: 0.16; stroke-width: 0.8; stroke-linecap: square"/>
     </g>
     <g id="line2d_37">
      <g>
       <use xlink:href="#m75117441f8" x="588.213803" y="266.073656" style="stroke: #000000; stroke-width: 0.8"/>
      </g>
     </g>
     <g id="text_21">
      <!-- $\mathdefault{2^{12}}$ -->
      <g transform="translate(580.363803 282.473656) scale(0.1 -0.1)">
       <use xlink:href="#DejaVuSans-15" transform="translate(0 0.746875)"/>
       <use xlink:href="#DejaVuSans-14" transform="translate(64.580078 42.046875) scale(0.7)"/>
       <use xlink:href="#DejaVuSans-15" transform="translate(109.116211 42.046875) scale(0.7)"/>
      </g>
     </g>
    </g>
    <g id="xtick_12">
     <g id="line2d_38">
      <path d="M 641.660536 266.073656
L 641.660536 70.467047
" clip-path="url(#pc6221d43b4)" style="fill: none; stroke: #b0b0b0; stroke-opacity: 0.16; stroke-width: 0.8; stroke-linecap: square"/>
     </g>
     <g id="line2d_39">
      <g>
       <use xlink:href="#m75117441f8" x="641.660536" y="266.073656" style="stroke: #000000; stroke-width: 0.8"/>
      </g>
     </g>
     <g id="text_22">
      <!-- $\mathdefault{2^{14}}$ -->
      <g transform="translate(633.810536 282.373656) scale(0.1 -0.1)">
       <use xlink:href="#DejaVuSans-15" transform="translate(0 0.665625)"/>
       <use xlink:href="#DejaVuSans-14" transform="translate(64.580078 41.965625) scale(0.7)"/>
       <use xlink:href="#DejaVuSans-17" transform="translate(109.116211 41.965625) scale(0.7)"/>
      </g>
     </g>
    </g>
    <g id="xtick_13">
     <g id="line2d_40">
      <path d="M 695.107269 266.073656
L 695.107269 70.467047
" clip-path="url(#pc6221d43b4)" style="fill: none; stroke: #b0b0b0; stroke-opacity: 0.16; stroke-width: 0.8; stroke-linecap: square"/>
     </g>
     <g id="line2d_41">
      <g>
       <use xlink:href="#m75117441f8" x="695.107269" y="266.073656" style="stroke: #000000; stroke-width: 0.8"/>
      </g>
     </g>
     <g id="text_23">
      <!-- $\mathdefault{2^{16}}$ -->
      <g transform="translate(687.257269 282.473656) scale(0.1 -0.1)">
       <use xlink:href="#DejaVuSans-15" transform="translate(0 0.746875)"/>
       <use xlink:href="#DejaVuSans-14" transform="translate(64.580078 42.046875) scale(0.7)"/>
       <use xlink:href="#DejaVuSans-19" transform="translate(109.116211 42.046875) scale(0.7)"/>
      </g>
     </g>
    </g>
    <g id="xtick_14">
     <g id="line2d_42">
      <path d="M 748.554002 266.073656
L 748.554002 70.467047
" clip-path="url(#pc6221d43b4)" style="fill: none; stroke: #b0b0b0; stroke-opacity: 0.16; stroke-width: 0.8; stroke-linecap: square"/>
     </g>
     <g id="line2d_43">
      <g>
       <use xlink:href="#m75117441f8" x="748.554002" y="266.073656" style="stroke: #000000; stroke-width: 0.8"/>
      </g>
     </g>
     <g id="text_24">
      <!-- $\mathdefault{2^{18}}$ -->
      <g transform="translate(740.704002 282.473656) scale(0.1 -0.1)">
       <use xlink:href="#DejaVuSans-15" transform="translate(0 0.746875)"/>
       <use xlink:href="#DejaVuSans-14" transform="translate(64.580078 42.046875) scale(0.7)"/>
       <use xlink:href="#DejaVuSans-1b" transform="translate(109.116211 42.046875) scale(0.7)"/>
      </g>
     </g>
    </g>
    <g id="xtick_15">
     <g id="line2d_44">
      <path d="M 802.000735 266.073656
L 802.000735 70.467047
" clip-path="url(#pc6221d43b4)" style="fill: none; stroke: #b0b0b0; stroke-opacity: 0.16; stroke-width: 0.8; stroke-linecap: square"/>
     </g>
     <g id="line2d_45">
      <g>
       <use xlink:href="#m75117441f8" x="802.000735" y="266.073656" style="stroke: #000000; stroke-width: 0.8"/>
      </g>
     </g>
     <g id="text_25">
      <!-- $\mathdefault{2^{20}}$ -->
      <g transform="translate(794.150735 282.473656) scale(0.1 -0.1)">
       <use xlink:href="#DejaVuSans-15" transform="translate(0 0.746875)"/>
       <use xlink:href="#DejaVuSans-15" transform="translate(64.580078 42.046875) scale(0.7)"/>
       <use xlink:href="#DejaVuSans-13" transform="translate(109.116211 42.046875) scale(0.7)"/>
      </g>
     </g>
    </g>
    <g id="xtick_16">
     <g id="line2d_46">
      <path d="M 855.447469 266.073656
L 855.447469 70.467047
" clip-path="url(#pc6221d43b4)" style="fill: none; stroke: #b0b0b0; stroke-opacity: 0.16; stroke-width: 0.8; stroke-linecap: square"/>
     </g>
     <g id="line2d_47">
      <g>
       <use xlink:href="#m75117441f8" x="855.447469" y="266.073656" style="stroke: #000000; stroke-width: 0.8"/>
      </g>
     </g>
     <g id="text_26">
      <!-- $\mathdefault{2^{22}}$ -->
      <g transform="translate(847.597469 282.473656) scale(0.1 -0.1)">
       <use xlink:href="#DejaVuSans-15" transform="translate(0 0.746875)"/>
       <use xlink:href="#DejaVuSans-15" transform="translate(64.580078 42.046875) scale(0.7)"/>
       <use xlink:href="#DejaVuSans-15" transform="translate(109.116211 42.046875) scale(0.7)"/>
      </g>
     </g>
    </g>
    <g id="text_27">
     <!-- Atoms N -->
     <g transform="translate(660.588555 296.473656) scale(0.1 -0.1)">
      <use xlink:href="#DejaVuSans-24"/>
      <use xlink:href="#DejaVuSans-57" transform="translate(66.65625 0)"/>
      <use xlink:href="#DejaVuSans-52" transform="translate(105.859375 0)"/>
      <use xlink:href="#DejaVuSans-50" transform="translate(167.046875 0)"/>
      <use xlink:href="#DejaVuSans-56" transform="translate(264.453125 0)"/>
      <use xlink:href="#DejaVuSans-3" transform="translate(316.546875 0)"/>
      <use xlink:href="#DejaVuSans-31" transform="translate(348.328125 0)"/>
     </g>
    </g>
   </g>
   <g id="matplotlib.axis_4">
    <g id="ytick_6">
     <g id="line2d_48">
      <path d="M 474.291172 261.683916
L 889.2 261.683916
" clip-path="url(#pc6221d43b4)" style="fill: none; stroke: #b0b0b0; stroke-opacity: 0.16; stroke-width: 0.8; stroke-linecap: square"/>
     </g>
     <g id="line2d_49">
      <g>
       <use xlink:href="#me847236257" x="474.291172" y="261.683916" style="stroke: #000000; stroke-width: 0.8"/>
      </g>
     </g>
    </g>
    <g id="ytick_7">
     <g id="line2d_50">
      <path d="M 474.291172 220.637778
L 889.2 220.637778
" clip-path="url(#pc6221d43b4)" style="fill: none; stroke: #b0b0b0; stroke-opacity: 0.16; stroke-width: 0.8; stroke-linecap: square"/>
     </g>
     <g id="line2d_51">
      <g>
       <use xlink:href="#me847236257" x="474.291172" y="220.637778" style="stroke: #000000; stroke-width: 0.8"/>
      </g>
     </g>
    </g>
    <g id="ytick_8">
     <g id="line2d_52">
      <path d="M 474.291172 179.591641
L 889.2 179.591641
" clip-path="url(#pc6221d43b4)" style="fill: none; stroke: #b0b0b0; stroke-opacity: 0.16; stroke-width: 0.8; stroke-linecap: square"/>
     </g>
     <g id="line2d_53">
      <g>
       <use xlink:href="#me847236257" x="474.291172" y="179.591641" style="stroke: #000000; stroke-width: 0.8"/>
      </g>
     </g>
    </g>
    <g id="ytick_9">
     <g id="line2d_54">
      <path d="M 474.291172 138.545503
L 889.2 138.545503
" clip-path="url(#pc6221d43b4)" style="fill: none; stroke: #b0b0b0; stroke-opacity: 0.16; stroke-width: 0.8; stroke-linecap: square"/>
     </g>
     <g id="line2d_55">
      <g>
       <use xlink:href="#me847236257" x="474.291172" y="138.545503" style="stroke: #000000; stroke-width: 0.8"/>
      </g>
     </g>
    </g>
    <g id="ytick_10">
     <g id="line2d_56">
      <path d="M 474.291172 97.499366
L 889.2 97.499366
" clip-path="url(#pc6221d43b4)" style="fill: none; stroke: #b0b0b0; stroke-opacity: 0.16; stroke-width: 0.8; stroke-linecap: square"/>
     </g>
     <g id="line2d_57">
      <g>
       <use xlink:href="#me847236257" x="474.291172" y="97.499366" style="stroke: #000000; stroke-width: 0.8"/>
      </g>
     </g>
    </g>
   </g>
   <g id="line2d_58">
    <path d="M 481.320337 245.413474
L 508.043703 244.610186
L 534.76707 245.251014
L 561.490436 245.16869
L 588.213803 245.105564
L 614.93717 245.933156
L 641.660536 251.60717
L 668.383903 250.622484
L 695.107269 249.900799
L 721.830636 248.988621
L 748.554002 250.677769
L 775.277369 252.874075
L 802.000735 253.090709
L 828.724102 253.193547
L 855.447469 253.671977
L 882.170835 252.279379
" clip-path="url(#pc6221d43b4)" style="fill: none; stroke: #245f9a; stroke-width: 1.5; stroke-linecap: square"/>
    <g clip-path="url(#pc6221d43b4)">
     <use xlink:href="#m075fba7885" x="481.320337" y="245.413474" style="fill: #245f9a; stroke: #245f9a"/>
     <use xlink:href="#m075fba7885" x="508.043703" y="244.610186" style="fill: #245f9a; stroke: #245f9a"/>
     <use xlink:href="#m075fba7885" x="534.76707" y="245.251014" style="fill: #245f9a; stroke: #245f9a"/>
     <use xlink:href="#m075fba7885" x="561.490436" y="245.16869" style="fill: #245f9a; stroke: #245f9a"/>
     <use xlink:href="#m075fba7885" x="588.213803" y="245.105564" style="fill: #245f9a; stroke: #245f9a"/>
     <use xlink:href="#m075fba7885" x="614.93717" y="245.933156" style="fill: #245f9a; stroke: #245f9a"/>
     <use xlink:href="#m075fba7885" x="641.660536" y="251.60717" style="fill: #245f9a; stroke: #245f9a"/>
     <use xlink:href="#m075fba7885" x="668.383903" y="250.622484" style="fill: #245f9a; stroke: #245f9a"/>
     <use xlink:href="#m075fba7885" x="695.107269" y="249.900799" style="fill: #245f9a; stroke: #245f9a"/>
     <use xlink:href="#m075fba7885" x="721.830636" y="248.988621" style="fill: #245f9a; stroke: #245f9a"/>
     <use xlink:href="#m075fba7885" x="748.554002" y="250.677769" style="fill: #245f9a; stroke: #245f9a"/>
     <use xlink:href="#m075fba7885" x="775.277369" y="252.874075" style="fill: #245f9a; stroke: #245f9a"/>
     <use xlink:href="#m075fba7885" x="802.000735" y="253.090709" style="fill: #245f9a; stroke: #245f9a"/>
     <use xlink:href="#m075fba7885" x="828.724102" y="253.193547" style="fill: #245f9a; stroke: #245f9a"/>
     <use xlink:href="#m075fba7885" x="855.447469" y="253.671977" style="fill: #245f9a; stroke: #245f9a"/>
     <use xlink:href="#m075fba7885" x="882.170835" y="252.279379" style="fill: #245f9a; stroke: #245f9a"/>
    </g>
   </g>
   <g id="line2d_59">
    <path d="M 481.320337 246.691621
L 508.043703 246.406895
L 534.76707 246.646241
L 561.490436 247.179916
L 588.213803 248.532715
L 614.93717 249.607956
L 641.660536 252.752452
L 668.383903 256.191786
L 695.107269 256.427624
L 721.830636 256.423607
L 748.554002 256.985237
L 775.277369 256.988525
L 802.000735 256.986013
L 828.724102 257.053868
L 855.447469 257.182447
" clip-path="url(#pc6221d43b4)" style="fill: none; stroke: #c66b20; stroke-width: 1.5; stroke-linecap: square"/>
    <g clip-path="url(#pc6221d43b4)">
     <use xlink:href="#m05ddceef45" x="481.320337" y="246.691621" style="fill: #c66b20; stroke: #c66b20"/>
     <use xlink:href="#m05ddceef45" x="508.043703" y="246.406895" style="fill: #c66b20; stroke: #c66b20"/>
     <use xlink:href="#m05ddceef45" x="534.76707" y="246.646241" style="fill: #c66b20; stroke: #c66b20"/>
     <use xlink:href="#m05ddceef45" x="561.490436" y="247.179916" style="fill: #c66b20; stroke: #c66b20"/>
     <use xlink:href="#m05ddceef45" x="588.213803" y="248.532715" style="fill: #c66b20; stroke: #c66b20"/>
     <use xlink:href="#m05ddceef45" x="614.93717" y="249.607956" style="fill: #c66b20; stroke: #c66b20"/>
     <use xlink:href="#m05ddceef45" x="641.660536" y="252.752452" style="fill: #c66b20; stroke: #c66b20"/>
     <use xlink:href="#m05ddceef45" x="668.383903" y="256.191786" style="fill: #c66b20; stroke: #c66b20"/>
     <use xlink:href="#m05ddceef45" x="695.107269" y="256.427624" style="fill: #c66b20; stroke: #c66b20"/>
     <use xlink:href="#m05ddceef45" x="721.830636" y="256.423607" style="fill: #c66b20; stroke: #c66b20"/>
     <use xlink:href="#m05ddceef45" x="748.554002" y="256.985237" style="fill: #c66b20; stroke: #c66b20"/>
     <use xlink:href="#m05ddceef45" x="775.277369" y="256.988525" style="fill: #c66b20; stroke: #c66b20"/>
     <use xlink:href="#m05ddceef45" x="802.000735" y="256.986013" style="fill: #c66b20; stroke: #c66b20"/>
     <use xlink:href="#m05ddceef45" x="828.724102" y="257.053868" style="fill: #c66b20; stroke: #c66b20"/>
     <use xlink:href="#m05ddceef45" x="855.447469" y="257.182447" style="fill: #c66b20; stroke: #c66b20"/>
    </g>
   </g>
   <g id="line2d_60">
    <path d="M 474.291172 253.474688
L 889.2 253.474688
" clip-path="url(#pc6221d43b4)" style="fill: none; stroke-dasharray: 0.8,1.32; stroke-dashoffset: 0; stroke: #555555; stroke-width: 0.8"/>
   </g>
   <g id="patch_6">
    <path d="M 474.291172 266.073656
L 474.291172 70.467047
" style="fill: none; stroke: #000000; stroke-width: 0.8; stroke-linejoin: miter; stroke-linecap: square"/>
   </g>
   <g id="patch_7">
    <path d="M 474.291172 266.073656
L 889.2 266.073656
" style="fill: none; stroke: #000000; stroke-width: 0.8; stroke-linejoin: miter; stroke-linecap: square"/>
   </g>
   <g id="text_28">
    <!-- Hygon BW / HIP (2026-09-16) -->
    <g transform="translate(593.464023 64.467047) scale(0.12 -0.12)">
     <defs>
      <path id="DejaVuSans-5c" d="M 2059 -325
Q 1816 -950 1584 -1140
Q 1353 -1331 966 -1331
L 506 -1331
L 506 -850
L 844 -850
Q 1081 -850 1212 -737
Q 1344 -625 1503 -206
L 1606 56
L 191 3500
L 800 3500
L 1894 763
L 2988 3500
L 3597 3500
L 2059 -325
z
" transform="scale(0.015625)"/>
      <path id="DejaVuSans-4a" d="M 2906 1791
Q 2906 2416 2648 2759
Q 2391 3103 1925 3103
Q 1463 3103 1205 2759
Q 947 2416 947 1791
Q 947 1169 1205 825
Q 1463 481 1925 481
Q 2391 481 2648 825
Q 2906 1169 2906 1791
z
M 3481 434
Q 3481 -459 3084 -895
Q 2688 -1331 1869 -1331
Q 1566 -1331 1297 -1286
Q 1028 -1241 775 -1147
L 775 -588
Q 1028 -725 1275 -790
Q 1522 -856 1778 -856
Q 2344 -856 2625 -561
Q 2906 -266 2906 331
L 2906 616
Q 2728 306 2450 153
Q 2172 0 1784 0
Q 1141 0 747 490
Q 353 981 353 1791
Q 353 2603 747 3093
Q 1141 3584 1784 3584
Q 2172 3584 2450 3431
Q 2728 3278 2906 2969
L 2906 3500
L 3481 3500
L 3481 434
z
" transform="scale(0.015625)"/>
      <path id="DejaVuSans-51" d="M 3513 2113
L 3513 0
L 2938 0
L 2938 2094
Q 2938 2591 2744 2837
Q 2550 3084 2163 3084
Q 1697 3084 1428 2787
Q 1159 2491 1159 1978
L 1159 0
L 581 0
L 581 3500
L 1159 3500
L 1159 2956
Q 1366 3272 1645 3428
Q 1925 3584 2291 3584
Q 2894 3584 3203 3211
Q 3513 2838 3513 2113
z
" transform="scale(0.015625)"/>
      <path id="DejaVuSans-25" d="M 1259 2228
L 1259 519
L 2272 519
Q 2781 519 3026 730
Q 3272 941 3272 1375
Q 3272 1813 3026 2020
Q 2781 2228 2272 2228
L 1259 2228
z
M 1259 4147
L 1259 2741
L 2194 2741
Q 2656 2741 2882 2914
Q 3109 3088 3109 3444
Q 3109 3797 2882 3972
Q 2656 4147 2194 4147
L 1259 4147
z
M 628 4666
L 2241 4666
Q 2963 4666 3353 4366
Q 3744 4066 3744 3513
Q 3744 3084 3544 2831
Q 3344 2578 2956 2516
Q 3422 2416 3680 2098
Q 3938 1781 3938 1306
Q 3938 681 3513 340
Q 3088 0 2303 0
L 628 0
L 628 4666
z
" transform="scale(0.015625)"/>
      <path id="DejaVuSans-3a" d="M 213 4666
L 850 4666
L 1831 722
L 2809 4666
L 3519 4666
L 4500 722
L 5478 4666
L 6119 4666
L 4947 0
L 4153 0
L 3169 4050
L 2175 0
L 1381 0
L 213 4666
z
" transform="scale(0.015625)"/>
      <path id="DejaVuSans-2c" d="M 628 4666
L 1259 4666
L 1259 0
L 628 0
L 628 4666
z
" transform="scale(0.015625)"/>
      <path id="DejaVuSans-33" d="M 1259 4147
L 1259 2394
L 2053 2394
Q 2494 2394 2734 2622
Q 2975 2850 2975 3272
Q 2975 3691 2734 3919
Q 2494 4147 2053 4147
L 1259 4147
z
M 628 4666
L 2053 4666
Q 2838 4666 3239 4311
Q 3641 3956 3641 3272
Q 3641 2581 3239 2228
Q 2838 1875 2053 1875
L 1259 1875
L 1259 0
L 628 0
L 628 4666
z
" transform="scale(0.015625)"/>
     </defs>
     <use xlink:href="#DejaVuSans-2b"/>
     <use xlink:href="#DejaVuSans-5c" transform="translate(75.203125 0)"/>
     <use xlink:href="#DejaVuSans-4a" transform="translate(134.390625 0)"/>
     <use xlink:href="#DejaVuSans-52" transform="translate(197.875 0)"/>
     <use xlink:href="#DejaVuSans-51" transform="translate(259.0625 0)"/>
     <use xlink:href="#DejaVuSans-3" transform="translate(322.4375 0)"/>
     <use xlink:href="#DejaVuSans-25" transform="translate(354.21875 0)"/>
     <use xlink:href="#DejaVuSans-3a" transform="translate(419.265625 0)"/>
     <use xlink:href="#DejaVuSans-3" transform="translate(518.140625 0)"/>
     <use xlink:href="#DejaVuSans-12" transform="translate(549.921875 0)"/>
     <use xlink:href="#DejaVuSans-3" transform="translate(583.609375 0)"/>
     <use xlink:href="#DejaVuSans-2b" transform="translate(615.390625 0)"/>
     <use xlink:href="#DejaVuSans-2c" transform="translate(690.59375 0)"/>
     <use xlink:href="#DejaVuSans-33" transform="translate(720.09375 0)"/>
     <use xlink:href="#DejaVuSans-3" transform="translate(780.390625 0)"/>
     <use xlink:href="#DejaVuSans-b" transform="translate(812.171875 0)"/>
     <use xlink:href="#DejaVuSans-15" transform="translate(851.1875 0)"/>
     <use xlink:href="#DejaVuSans-13" transform="translate(914.8125 0)"/>
     <use xlink:href="#DejaVuSans-15" transform="translate(978.4375 0)"/>
     <use xlink:href="#DejaVuSans-19" transform="translate(1042.0625 0)"/>
     <use xlink:href="#DejaVuSans-10" transform="translate(1105.6875 0)"/>
     <use xlink:href="#DejaVuSans-13" transform="translate(1141.765625 0)"/>
     <use xlink:href="#DejaVuSans-1c" transform="translate(1205.390625 0)"/>
     <use xlink:href="#DejaVuSans-10" transform="translate(1269.015625 0)"/>
     <use xlink:href="#DejaVuSans-14" transform="translate(1305.09375 0)"/>
     <use xlink:href="#DejaVuSans-19" transform="translate(1368.71875 0)"/>
     <use xlink:href="#DejaVuSans-c" transform="translate(1432.34375 0)"/>
    </g>
   </g>
   <g id="legend_2">
    <g id="line2d_61">
     <path d="M 776.95375 80.945797
L 784.95375 80.945797
L 792.95375 80.945797
" style="fill: none; stroke: #245f9a; stroke-width: 1.5; stroke-linecap: square"/>
     <g>
      <use xlink:href="#m075fba7885" x="784.95375" y="80.945797" style="fill: #245f9a; stroke: #245f9a"/>
     </g>
    </g>
    <g id="text_29">
     <!-- Forward -->
     <g transform="translate(799.35375 83.745797) scale(0.08 -0.08)">
      <use xlink:href="#DejaVuSans-29"/>
      <use xlink:href="#DejaVuSans-52" transform="translate(53.953125 0)"/>
      <use xlink:href="#DejaVuSans-55" transform="translate(115.140625 0)"/>
      <use xlink:href="#DejaVuSans-5a" transform="translate(156.25 0)"/>
      <use xlink:href="#DejaVuSans-44" transform="translate(238.03125 0)"/>
      <use xlink:href="#DejaVuSans-55" transform="translate(299.3125 0)"/>
      <use xlink:href="#DejaVuSans-47" transform="translate(338.671875 0)"/>
     </g>
    </g>
    <g id="line2d_62">
     <path d="M 776.95375 92.946422
L 784.95375 92.946422
L 792.95375 92.946422
" style="fill: none; stroke: #c66b20; stroke-width: 1.5; stroke-linecap: square"/>
     <g>
      <use xlink:href="#m05ddceef45" x="784.95375" y="92.946422" style="fill: #c66b20; stroke: #c66b20"/>
     </g>
    </g>
    <g id="text_30">
     <!-- Forward + backward -->
     <g transform="translate(799.35375 95.746422) scale(0.08 -0.08)">
      <use xlink:href="#DejaVuSans-29"/>
      <use xlink:href="#DejaVuSans-52" transform="translate(53.953125 0)"/>
      <use xlink:href="#DejaVuSans-55" transform="translate(115.140625 0)"/>
      <use xlink:href="#DejaVuSans-5a" transform="translate(156.25 0)"/>
      <use xlink:href="#DejaVuSans-44" transform="translate(238.03125 0)"/>
      <use xlink:href="#DejaVuSans-55" transform="translate(299.3125 0)"/>
      <use xlink:href="#DejaVuSans-47" transform="translate(338.671875 0)"/>
      <use xlink:href="#DejaVuSans-3" transform="translate(402.15625 0)"/>
      <use xlink:href="#DejaVuSans-e" transform="translate(433.9375 0)"/>
      <use xlink:href="#DejaVuSans-3" transform="translate(517.734375 0)"/>
      <use xlink:href="#DejaVuSans-45" transform="translate(549.515625 0)"/>
      <use xlink:href="#DejaVuSans-44" transform="translate(613 0)"/>
      <use xlink:href="#DejaVuSans-46" transform="translate(674.28125 0)"/>
      <use xlink:href="#DejaVuSans-4e" transform="translate(729.265625 0)"/>
      <use xlink:href="#DejaVuSans-5a" transform="translate(787.171875 0)"/>
      <use xlink:href="#DejaVuSans-44" transform="translate(868.953125 0)"/>
      <use xlink:href="#DejaVuSans-55" transform="translate(930.234375 0)"/>
      <use xlink:href="#DejaVuSans-47" transform="translate(969.59375 0)"/>
     </g>
    </g>
   </g>
  </g>
  <g id="text_31">
   <!-- Standalone FP32 calls: GraphSoftmax (cached CSR) -->
   <g transform="translate(281.652031 16.645969) scale(0.13 -0.13)">
    <defs>
     <path id="DejaVuSans-36" d="M 3425 4513
L 3425 3897
Q 3066 4069 2747 4153
Q 2428 4238 2131 4238
Q 1616 4238 1336 4038
Q 1056 3838 1056 3469
Q 1056 3159 1242 3001
Q 1428 2844 1947 2747
L 2328 2669
Q 3034 2534 3370 2195
Q 3706 1856 3706 1288
Q 3706 609 3251 259
Q 2797 -91 1919 -91
Q 1588 -91 1214 -16
Q 841 59 441 206
L 441 856
Q 825 641 1194 531
Q 1563 422 1919 422
Q 2459 422 2753 634
Q 3047 847 3047 1241
Q 3047 1584 2836 1778
Q 2625 1972 2144 2069
L 1759 2144
Q 1053 2284 737 2584
Q 422 2884 422 3419
Q 422 4038 858 4394
Q 1294 4750 2059 4750
Q 2388 4750 2728 4690
Q 3069 4631 3425 4513
z
" transform="scale(0.015625)"/>
     <path id="DejaVuSans-4f" d="M 603 4863
L 1178 4863
L 1178 0
L 603 0
L 603 4863
z
" transform="scale(0.015625)"/>
     <path id="DejaVuSans-16" d="M 2597 2516
Q 3050 2419 3304 2112
Q 3559 1806 3559 1356
Q 3559 666 3084 287
Q 2609 -91 1734 -91
Q 1441 -91 1130 -33
Q 819 25 488 141
L 488 750
Q 750 597 1062 519
Q 1375 441 1716 441
Q 2309 441 2620 675
Q 2931 909 2931 1356
Q 2931 1769 2642 2001
Q 2353 2234 1838 2234
L 1294 2234
L 1294 2753
L 1863 2753
Q 2328 2753 2575 2939
Q 2822 3125 2822 3475
Q 2822 3834 2567 4026
Q 2313 4219 1838 4219
Q 1578 4219 1281 4162
Q 984 4106 628 3988
L 628 4550
Q 988 4650 1302 4700
Q 1616 4750 1894 4750
Q 2613 4750 3031 4423
Q 3450 4097 3450 3541
Q 3450 3153 3228 2886
Q 3006 2619 2597 2516
z
" transform="scale(0.015625)"/>
     <path id="DejaVuSans-1d" d="M 750 794
L 1409 794
L 1409 0
L 750 0
L 750 794
z
M 750 3309
L 1409 3309
L 1409 2516
L 750 2516
L 750 3309
z
" transform="scale(0.015625)"/>
     <path id="DejaVuSans-2a" d="M 3809 666
L 3809 1919
L 2778 1919
L 2778 2438
L 4434 2438
L 4434 434
Q 4069 175 3628 42
Q 3188 -91 2688 -91
Q 1594 -91 976 548
Q 359 1188 359 2328
Q 359 3472 976 4111
Q 1594 4750 2688 4750
Q 3144 4750 3555 4637
Q 3966 4525 4313 4306
L 4313 3634
Q 3963 3931 3569 4081
Q 3175 4231 2741 4231
Q 1884 4231 1454 3753
Q 1025 3275 1025 2328
Q 1025 1384 1454 906
Q 1884 428 2741 428
Q 3075 428 3337 486
Q 3600 544 3809 666
z
" transform="scale(0.015625)"/>
     <path id="DejaVuSans-53" d="M 1159 525
L 1159 -1331
L 581 -1331
L 581 3500
L 1159 3500
L 1159 2969
Q 1341 3281 1617 3432
Q 1894 3584 2278 3584
Q 2916 3584 3314 3078
Q 3713 2572 3713 1747
Q 3713 922 3314 415
Q 2916 -91 2278 -91
Q 1894 -91 1617 61
Q 1341 213 1159 525
z
M 3116 1747
Q 3116 2381 2855 2742
Q 2594 3103 2138 3103
Q 1681 3103 1420 2742
Q 1159 2381 1159 1747
Q 1159 1113 1420 752
Q 1681 391 2138 391
Q 2594 391 2855 752
Q 3116 1113 3116 1747
z
" transform="scale(0.015625)"/>
     <path id="DejaVuSans-49" d="M 2375 4863
L 2375 4384
L 1825 4384
Q 1516 4384 1395 4259
Q 1275 4134 1275 3809
L 1275 3500
L 2222 3500
L 2222 3053
L 1275 3053
L 1275 0
L 697 0
L 697 3053
L 147 3053
L 147 3500
L 697 3500
L 697 3744
Q 697 4328 969 4595
Q 1241 4863 1831 4863
L 2375 4863
z
" transform="scale(0.015625)"/>
     <path id="DejaVuSans-5b" d="M 3513 3500
L 2247 1797
L 3578 0
L 2900 0
L 1881 1375
L 863 0
L 184 0
L 1544 1831
L 300 3500
L 978 3500
L 1906 2253
L 2834 3500
L 3513 3500
z
" transform="scale(0.015625)"/>
     <path id="DejaVuSans-35" d="M 2841 2188
Q 3044 2119 3236 1894
Q 3428 1669 3622 1275
L 4263 0
L 3584 0
L 2988 1197
Q 2756 1666 2539 1819
Q 2322 1972 1947 1972
L 1259 1972
L 1259 0
L 628 0
L 628 4666
L 2053 4666
Q 2853 4666 3247 4331
Q 3641 3997 3641 3322
Q 3641 2881 3436 2590
Q 3231 2300 2841 2188
z
M 1259 4147
L 1259 2491
L 2053 2491
Q 2509 2491 2742 2702
Q 2975 2913 2975 3322
Q 2975 3731 2742 3939
Q 2509 4147 2053 4147
L 1259 4147
z
" transform="scale(0.015625)"/>
    </defs>
    <use xlink:href="#DejaVuSans-36"/>
    <use xlink:href="#DejaVuSans-57" transform="translate(63.484375 0)"/>
    <use xlink:href="#DejaVuSans-44" transform="translate(102.6875 0)"/>
    <use xlink:href="#DejaVuSans-51" transform="translate(163.96875 0)"/>
    <use xlink:href="#DejaVuSans-47" transform="translate(227.34375 0)"/>
    <use xlink:href="#DejaVuSans-44" transform="translate(290.828125 0)"/>
    <use xlink:href="#DejaVuSans-4f" transform="translate(352.109375 0)"/>
    <use xlink:href="#DejaVuSans-52" transform="translate(379.890625 0)"/>
    <use xlink:href="#DejaVuSans-51" transform="translate(441.078125 0)"/>
    <use xlink:href="#DejaVuSans-48" transform="translate(504.453125 0)"/>
    <use xlink:href="#DejaVuSans-3" transform="translate(565.984375 0)"/>
    <use xlink:href="#DejaVuSans-29" transform="translate(597.765625 0)"/>
    <use xlink:href="#DejaVuSans-33" transform="translate(655.28125 0)"/>
    <use xlink:href="#DejaVuSans-16" transform="translate(715.578125 0)"/>
    <use xlink:href="#DejaVuSans-15" transform="translate(779.203125 0)"/>
    <use xlink:href="#DejaVuSans-3" transform="translate(842.828125 0)"/>
    <use xlink:href="#DejaVuSans-46" transform="translate(874.609375 0)"/>
    <use xlink:href="#DejaVuSans-44" transform="translate(929.59375 0)"/>
    <use xlink:href="#DejaVuSans-4f" transform="translate(990.875 0)"/>
    <use xlink:href="#DejaVuSans-4f" transform="translate(1018.65625 0)"/>
    <use xlink:href="#DejaVuSans-56" transform="translate(1046.4375 0)"/>
    <use xlink:href="#DejaVuSans-1d" transform="translate(1098.53125 0)"/>
    <use xlink:href="#DejaVuSans-3" transform="translate(1132.21875 0)"/>
    <use xlink:href="#DejaVuSans-2a" transform="translate(1164 0)"/>
    <use xlink:href="#DejaVuSans-55" transform="translate(1241.484375 0)"/>
    <use xlink:href="#DejaVuSans-44" transform="translate(1282.59375 0)"/>
    <use xlink:href="#DejaVuSans-53" transform="translate(1343.875 0)"/>
    <use xlink:href="#DejaVuSans-4b" transform="translate(1407.359375 0)"/>
    <use xlink:href="#DejaVuSans-36" transform="translate(1470.734375 0)"/>
    <use xlink:href="#DejaVuSans-52" transform="translate(1534.21875 0)"/>
    <use xlink:href="#DejaVuSans-49" transform="translate(1595.40625 0)"/>
    <use xlink:href="#DejaVuSans-57" transform="translate(1628.859375 0)"/>
    <use xlink:href="#DejaVuSans-50" transform="translate(1668.0625 0)"/>
    <use xlink:href="#DejaVuSans-44" transform="translate(1765.46875 0)"/>
    <use xlink:href="#DejaVuSans-5b" transform="translate(1826.75 0)"/>
    <use xlink:href="#DejaVuSans-3" transform="translate(1885.9375 0)"/>
    <use xlink:href="#DejaVuSans-b" transform="translate(1917.71875 0)"/>
    <use xlink:href="#DejaVuSans-46" transform="translate(1956.734375 0)"/>
    <use xlink:href="#DejaVuSans-44" transform="translate(2011.71875 0)"/>
    <use xlink:href="#DejaVuSans-46" transform="translate(2073 0)"/>
    <use xlink:href="#DejaVuSans-4b" transform="translate(2127.984375 0)"/>
    <use xlink:href="#DejaVuSans-48" transform="translate(2191.359375 0)"/>
    <use xlink:href="#DejaVuSans-47" transform="translate(2252.890625 0)"/>
    <use xlink:href="#DejaVuSans-3" transform="translate(2316.375 0)"/>
    <use xlink:href="#DejaVuSans-26" transform="translate(2348.15625 0)"/>
    <use xlink:href="#DejaVuSans-36" transform="translate(2417.984375 0)"/>
    <use xlink:href="#DejaVuSans-35" transform="translate(2481.46875 0)"/>
    <use xlink:href="#DejaVuSans-c" transform="translate(2550.953125 0)"/>
   </g>
  </g>
  <g id="text_32">
   <!-- Cached CSR; preprocessing is reported separately. These curves do not cover all broadcast-rescale configurations. -->
   <g transform="translate(27 322.4952) scale(0.08 -0.08)">
    <defs>
     <path id="DejaVuSans-1e" d="M 750 3309
L 1409 3309
L 1409 2516
L 750 2516
L 750 3309
z
M 750 794
L 1409 794
L 1409 256
L 897 -744
L 494 -744
L 750 256
L 750 794
z
" transform="scale(0.015625)"/>
     <path id="DejaVuSans-11" d="M 684 794
L 1344 794
L 1344 0
L 684 0
L 684 794
z
" transform="scale(0.015625)"/>
     <path id="DejaVuSans-58" d="M 544 1381
L 544 3500
L 1119 3500
L 1119 1403
Q 1119 906 1312 657
Q 1506 409 1894 409
Q 2359 409 2629 706
Q 2900 1003 2900 1516
L 2900 3500
L 3475 3500
L 3475 0
L 2900 0
L 2900 538
Q 2691 219 2414 64
Q 2138 -91 1772 -91
Q 1169 -91 856 284
Q 544 659 544 1381
z
M 1991 3584
L 1991 3584
z
" transform="scale(0.015625)"/>
     <path id="DejaVuSans-13af" d="M 3431 3500
L 3431 0
L 2853 0
L 2853 3053
L 1275 3053
L 1275 0
L 697 0
L 697 3053
L 147 3053
L 147 3500
L 697 3500
L 697 3744
Q 697 4316 967 4589
Q 1238 4863 1797 4863
L 2375 4863
L 2375 4384
L 1825 4384
Q 1516 4384 1395 4259
Q 1275 4134 1275 3809
L 1275 3500
L 3431 3500
z
M 2853 4856
L 3431 4856
L 3431 4128
L 2853 4128
L 2853 4856
z
" transform="scale(0.015625)"/>
    </defs>
    <use xlink:href="#DejaVuSans-26"/>
    <use xlink:href="#DejaVuSans-44" transform="translate(69.828125 0)"/>
    <use xlink:href="#DejaVuSans-46" transform="translate(131.109375 0)"/>
    <use xlink:href="#DejaVuSans-4b" transform="translate(186.09375 0)"/>
    <use xlink:href="#DejaVuSans-48" transform="translate(249.46875 0)"/>
    <use xlink:href="#DejaVuSans-47" transform="translate(311 0)"/>
    <use xlink:href="#DejaVuSans-3" transform="translate(374.484375 0)"/>
    <use xlink:href="#DejaVuSans-26" transform="translate(406.265625 0)"/>
    <use xlink:href="#DejaVuSans-36" transform="translate(476.09375 0)"/>
    <use xlink:href="#DejaVuSans-35" transform="translate(539.578125 0)"/>
    <use xlink:href="#DejaVuSans-1e" transform="translate(609.0625 0)"/>
    <use xlink:href="#DejaVuSans-3" transform="translate(642.75 0)"/>
    <use xlink:href="#DejaVuSans-53" transform="translate(674.53125 0)"/>
    <use xlink:href="#DejaVuSans-55" transform="translate(738.015625 0)"/>
    <use xlink:href="#DejaVuSans-48" transform="translate(776.921875 0)"/>
    <use xlink:href="#DejaVuSans-53" transform="translate(838.453125 0)"/>
    <use xlink:href="#DejaVuSans-55" transform="translate(901.9375 0)"/>
    <use xlink:href="#DejaVuSans-52" transform="translate(940.84375 0)"/>
    <use xlink:href="#DejaVuSans-46" transform="translate(1002.03125 0)"/>
    <use xlink:href="#DejaVuSans-48" transform="translate(1057.015625 0)"/>
    <use xlink:href="#DejaVuSans-56" transform="translate(1118.546875 0)"/>
    <use xlink:href="#DejaVuSans-56" transform="translate(1170.640625 0)"/>
    <use xlink:href="#DejaVuSans-4c" transform="translate(1222.734375 0)"/>
    <use xlink:href="#DejaVuSans-51" transform="translate(1250.515625 0)"/>
    <use xlink:href="#DejaVuSans-4a" transform="translate(1313.890625 0)"/>
    <use xlink:href="#DejaVuSans-3" transform="translate(1377.375 0)"/>
    <use xlink:href="#DejaVuSans-4c" transform="translate(1409.15625 0)"/>
    <use xlink:href="#DejaVuSans-56" transform="translate(1436.9375 0)"/>
    <use xlink:href="#DejaVuSans-3" transform="translate(1489.03125 0)"/>
    <use xlink:href="#DejaVuSans-55" transform="translate(1520.8125 0)"/>
    <use xlink:href="#DejaVuSans-48" transform="translate(1559.71875 0)"/>
    <use xlink:href="#DejaVuSans-53" transform="translate(1621.25 0)"/>
    <use xlink:href="#DejaVuSans-52" transform="translate(1684.734375 0)"/>
    <use xlink:href="#DejaVuSans-55" transform="translate(1745.921875 0)"/>
    <use xlink:href="#DejaVuSans-57" transform="translate(1787.03125 0)"/>
    <use xlink:href="#DejaVuSans-48" transform="translate(1826.234375 0)"/>
    <use xlink:href="#DejaVuSans-47" transform="translate(1887.765625 0)"/>
    <use xlink:href="#DejaVuSans-3" transform="translate(1951.25 0)"/>
    <use xlink:href="#DejaVuSans-56" transform="translate(1983.03125 0)"/>
    <use xlink:href="#DejaVuSans-48" transform="translate(2035.125 0)"/>
    <use xlink:href="#DejaVuSans-53" transform="translate(2096.65625 0)"/>
    <use xlink:href="#DejaVuSans-44" transform="translate(2160.140625 0)"/>
    <use xlink:href="#DejaVuSans-55" transform="translate(2221.421875 0)"/>
    <use xlink:href="#DejaVuSans-44" transform="translate(2262.53125 0)"/>
    <use xlink:href="#DejaVuSans-57" transform="translate(2323.8125 0)"/>
    <use xlink:href="#DejaVuSans-48" transform="translate(2363.015625 0)"/>
    <use xlink:href="#DejaVuSans-4f" transform="translate(2424.546875 0)"/>
    <use xlink:href="#DejaVuSans-5c" transform="translate(2452.328125 0)"/>
    <use xlink:href="#DejaVuSans-11" transform="translate(2497.265625 0)"/>
    <use xlink:href="#DejaVuSans-3" transform="translate(2529.046875 0)"/>
    <use xlink:href="#DejaVuSans-37" transform="translate(2560.828125 0)"/>
    <use xlink:href="#DejaVuSans-4b" transform="translate(2621.90625 0)"/>
    <use xlink:href="#DejaVuSans-48" transform="translate(2685.28125 0)"/>
    <use xlink:href="#DejaVuSans-56" transform="translate(2746.8125 0)"/>
    <use xlink:href="#DejaVuSans-48" transform="translate(2798.90625 0)"/>
    <use xlink:href="#DejaVuSans-3" transform="translate(2860.4375 0)"/>
    <use xlink:href="#DejaVuSans-46" transform="translate(2892.21875 0)"/>
    <use xlink:href="#DejaVuSans-58" transform="translate(2947.203125 0)"/>
    <use xlink:href="#DejaVuSans-55" transform="translate(3010.578125 0)"/>
    <use xlink:href="#DejaVuSans-59" transform="translate(3051.6875 0)"/>
    <use xlink:href="#DejaVuSans-48" transform="translate(3110.875 0)"/>
    <use xlink:href="#DejaVuSans-56" transform="translate(3172.40625 0)"/>
    <use xlink:href="#DejaVuSans-3" transform="translate(3224.5 0)"/>
    <use xlink:href="#DejaVuSans-47" transform="translate(3256.28125 0)"/>
    <use xlink:href="#DejaVuSans-52" transform="translate(3319.765625 0)"/>
    <use xlink:href="#DejaVuSans-3" transform="translate(3380.953125 0)"/>
    <use xlink:href="#DejaVuSans-51" transform="translate(3412.734375 0)"/>
    <use xlink:href="#DejaVuSans-52" transform="translate(3476.109375 0)"/>
    <use xlink:href="#DejaVuSans-57" transform="translate(3537.296875 0)"/>
    <use xlink:href="#DejaVuSans-3" transform="translate(3576.5 0)"/>
    <use xlink:href="#DejaVuSans-46" transform="translate(3608.28125 0)"/>
    <use xlink:href="#DejaVuSans-52" transform="translate(3663.265625 0)"/>
    <use xlink:href="#DejaVuSans-59" transform="translate(3724.453125 0)"/>
    <use xlink:href="#DejaVuSans-48" transform="translate(3783.640625 0)"/>
    <use xlink:href="#DejaVuSans-55" transform="translate(3845.171875 0)"/>
    <use xlink:href="#DejaVuSans-3" transform="translate(3886.28125 0)"/>
    <use xlink:href="#DejaVuSans-44" transform="translate(3918.0625 0)"/>
    <use xlink:href="#DejaVuSans-4f" transform="translate(3979.34375 0)"/>
    <use xlink:href="#DejaVuSans-4f" transform="translate(4007.125 0)"/>
    <use xlink:href="#DejaVuSans-3" transform="translate(4034.90625 0)"/>
    <use xlink:href="#DejaVuSans-45" transform="translate(4066.6875 0)"/>
    <use xlink:href="#DejaVuSans-55" transform="translate(4130.171875 0)"/>
    <use xlink:href="#DejaVuSans-52" transform="translate(4169.078125 0)"/>
    <use xlink:href="#DejaVuSans-44" transform="translate(4230.265625 0)"/>
    <use xlink:href="#DejaVuSans-47" transform="translate(4291.546875 0)"/>
    <use xlink:href="#DejaVuSans-46" transform="translate(4355.03125 0)"/>
    <use xlink:href="#DejaVuSans-44" transform="translate(4410.015625 0)"/>
    <use xlink:href="#DejaVuSans-56" transform="translate(4471.296875 0)"/>
    <use xlink:href="#DejaVuSans-57" transform="translate(4523.390625 0)"/>
    <use xlink:href="#DejaVuSans-10" transform="translate(4562.59375 0)"/>
    <use xlink:href="#DejaVuSans-55" transform="translate(4598.671875 0)"/>
    <use xlink:href="#DejaVuSans-48" transform="translate(4637.578125 0)"/>
    <use xlink:href="#DejaVuSans-56" transform="translate(4699.109375 0)"/>
    <use xlink:href="#DejaVuSans-46" transform="translate(4751.203125 0)"/>
    <use xlink:href="#DejaVuSans-44" transform="translate(4806.1875 0)"/>
    <use xlink:href="#DejaVuSans-4f" transform="translate(4867.46875 0)"/>
    <use xlink:href="#DejaVuSans-48" transform="translate(4895.25 0)"/>
    <use xlink:href="#DejaVuSans-3" transform="translate(4956.78125 0)"/>
    <use xlink:href="#DejaVuSans-46" transform="translate(4988.5625 0)"/>
    <use xlink:href="#DejaVuSans-52" transform="translate(5043.546875 0)"/>
    <use xlink:href="#DejaVuSans-51" transform="translate(5104.734375 0)"/>
    <use xlink:href="#DejaVuSans-13af" transform="translate(5168.109375 0)"/>
    <use xlink:href="#DejaVuSans-4a" transform="translate(5231.09375 0)"/>
    <use xlink:href="#DejaVuSans-58" transform="translate(5294.578125 0)"/>
    <use xlink:href="#DejaVuSans-55" transform="translate(5357.953125 0)"/>
    <use xlink:href="#DejaVuSans-44" transform="translate(5399.0625 0)"/>
    <use xlink:href="#DejaVuSans-57" transform="translate(5460.34375 0)"/>
    <use xlink:href="#DejaVuSans-4c" transform="translate(5499.546875 0)"/>
    <use xlink:href="#DejaVuSans-52" transform="translate(5527.328125 0)"/>
    <use xlink:href="#DejaVuSans-51" transform="translate(5588.515625 0)"/>
    <use xlink:href="#DejaVuSans-56" transform="translate(5651.890625 0)"/>
    <use xlink:href="#DejaVuSans-11" transform="translate(5703.984375 0)"/>
   </g>
  </g>
  <g id="text_33">
   <!-- Red x: failed accuracy check (diagnostic timing). Ratios compare implementations within a device, not hardware throughput. -->
   <g style="fill: #555555" transform="translate(27 334.3392) scale(0.08 -0.08)">
    <defs>
     <path id="DejaVuSans-f" d="M 750 794
L 1409 794
L 1409 256
L 897 -744
L 494 -744
L 750 256
L 750 794
z
" transform="scale(0.015625)"/>
    </defs>
    <use xlink:href="#DejaVuSans-35"/>
    <use xlink:href="#DejaVuSans-48" transform="translate(65 0)"/>
    <use xlink:href="#DejaVuSans-47" transform="translate(126.53125 0)"/>
    <use xlink:href="#DejaVuSans-3" transform="translate(190.015625 0)"/>
    <use xlink:href="#DejaVuSans-5b" transform="translate(221.796875 0)"/>
    <use xlink:href="#DejaVuSans-1d" transform="translate(280.984375 0)"/>
    <use xlink:href="#DejaVuSans-3" transform="translate(314.671875 0)"/>
    <use xlink:href="#DejaVuSans-49" transform="translate(346.453125 0)"/>
    <use xlink:href="#DejaVuSans-44" transform="translate(381.65625 0)"/>
    <use xlink:href="#DejaVuSans-4c" transform="translate(442.9375 0)"/>
    <use xlink:href="#DejaVuSans-4f" transform="translate(470.71875 0)"/>
    <use xlink:href="#DejaVuSans-48" transform="translate(498.5 0)"/>
    <use xlink:href="#DejaVuSans-47" transform="translate(560.03125 0)"/>
    <use xlink:href="#DejaVuSans-3" transform="translate(623.515625 0)"/>
    <use xlink:href="#DejaVuSans-44" transform="translate(655.296875 0)"/>
    <use xlink:href="#DejaVuSans-46" transform="translate(716.578125 0)"/>
    <use xlink:href="#DejaVuSans-46" transform="translate(771.5625 0)"/>
    <use xlink:href="#DejaVuSans-58" transform="translate(826.546875 0)"/>
    <use xlink:href="#DejaVuSans-55" transform="translate(889.921875 0)"/>
    <use xlink:href="#DejaVuSans-44" transform="translate(931.03125 0)"/>
    <use xlink:href="#DejaVuSans-46" transform="translate(992.3125 0)"/>
    <use xlink:href="#DejaVuSans-5c" transform="translate(1047.296875 0)"/>
    <use xlink:href="#DejaVuSans-3" transform="translate(1106.484375 0)"/>
    <use xlink:href="#DejaVuSans-46" transform="translate(1138.265625 0)"/>
    <use xlink:href="#DejaVuSans-4b" transform="translate(1193.25 0)"/>
    <use xlink:href="#DejaVuSans-48" transform="translate(1256.625 0)"/>
    <use xlink:href="#DejaVuSans-46" transform="translate(1318.15625 0)"/>
    <use xlink:href="#DejaVuSans-4e" transform="translate(1373.140625 0)"/>
    <use xlink:href="#DejaVuSans-3" transform="translate(1431.046875 0)"/>
    <use xlink:href="#DejaVuSans-b" transform="translate(1462.828125 0)"/>
    <use xlink:href="#DejaVuSans-47" transform="translate(1501.84375 0)"/>
    <use xlink:href="#DejaVuSans-4c" transform="translate(1565.328125 0)"/>
    <use xlink:href="#DejaVuSans-44" transform="translate(1593.109375 0)"/>
    <use xlink:href="#DejaVuSans-4a" transform="translate(1654.390625 0)"/>
    <use xlink:href="#DejaVuSans-51" transform="translate(1717.875 0)"/>
    <use xlink:href="#DejaVuSans-52" transform="translate(1781.25 0)"/>
    <use xlink:href="#DejaVuSans-56" transform="translate(1842.4375 0)"/>
    <use xlink:href="#DejaVuSans-57" transform="translate(1894.53125 0)"/>
    <use xlink:href="#DejaVuSans-4c" transform="translate(1933.734375 0)"/>
    <use xlink:href="#DejaVuSans-46" transform="translate(1961.515625 0)"/>
    <use xlink:href="#DejaVuSans-3" transform="translate(2016.5 0)"/>
    <use xlink:href="#DejaVuSans-57" transform="translate(2048.28125 0)"/>
    <use xlink:href="#DejaVuSans-4c" transform="translate(2087.484375 0)"/>
    <use xlink:href="#DejaVuSans-50" transform="translate(2115.265625 0)"/>
    <use xlink:href="#DejaVuSans-4c" transform="translate(2212.671875 0)"/>
    <use xlink:href="#DejaVuSans-51" transform="translate(2240.453125 0)"/>
    <use xlink:href="#DejaVuSans-4a" transform="translate(2303.828125 0)"/>
    <use xlink:href="#DejaVuSans-c" transform="translate(2367.3125 0)"/>
    <use xlink:href="#DejaVuSans-11" transform="translate(2406.328125 0)"/>
    <use xlink:href="#DejaVuSans-3" transform="translate(2438.109375 0)"/>
    <use xlink:href="#DejaVuSans-35" transform="translate(2469.890625 0)"/>
    <use xlink:href="#DejaVuSans-44" transform="translate(2537.171875 0)"/>
    <use xlink:href="#DejaVuSans-57" transform="translate(2598.453125 0)"/>
    <use xlink:href="#DejaVuSans-4c" transform="translate(2637.65625 0)"/>
    <use xlink:href="#DejaVuSans-52" transform="translate(2665.4375 0)"/>
    <use xlink:href="#DejaVuSans-56" transform="translate(2726.625 0)"/>
    <use xlink:href="#DejaVuSans-3" transform="translate(2778.71875 0)"/>
    <use xlink:href="#DejaVuSans-46" transform="translate(2810.5 0)"/>
    <use xlink:href="#DejaVuSans-52" transform="translate(2865.484375 0)"/>
    <use xlink:href="#DejaVuSans-50" transform="translate(2926.671875 0)"/>
    <use xlink:href="#DejaVuSans-53" transform="translate(3024.078125 0)"/>
    <use xlink:href="#DejaVuSans-44" transform="translate(3087.5625 0)"/>
    <use xlink:href="#DejaVuSans-55" transform="translate(3148.84375 0)"/>
    <use xlink:href="#DejaVuSans-48" transform="translate(3187.75 0)"/>
    <use xlink:href="#DejaVuSans-3" transform="translate(3249.28125 0)"/>
    <use xlink:href="#DejaVuSans-4c" transform="translate(3281.0625 0)"/>
    <use xlink:href="#DejaVuSans-50" transform="translate(3308.84375 0)"/>
    <use xlink:href="#DejaVuSans-53" transform="translate(3406.25 0)"/>
    <use xlink:href="#DejaVuSans-4f" transform="translate(3469.734375 0)"/>
    <use xlink:href="#DejaVuSans-48" transform="translate(3497.515625 0)"/>
    <use xlink:href="#DejaVuSans-50" transform="translate(3559.046875 0)"/>
    <use xlink:href="#DejaVuSans-48" transform="translate(3656.453125 0)"/>
    <use xlink:href="#DejaVuSans-51" transform="translate(3717.984375 0)"/>
    <use xlink:href="#DejaVuSans-57" transform="translate(3781.359375 0)"/>
    <use xlink:href="#DejaVuSans-44" transform="translate(3820.5625 0)"/>
    <use xlink:href="#DejaVuSans-57" transform="translate(3881.84375 0)"/>
    <use xlink:href="#DejaVuSans-4c" transform="translate(3921.046875 0)"/>
    <use xlink:href="#DejaVuSans-52" transform="translate(3948.828125 0)"/>
    <use xlink:href="#DejaVuSans-51" transform="translate(4010.015625 0)"/>
    <use xlink:href="#DejaVuSans-56" transform="translate(4073.390625 0)"/>
    <use xlink:href="#DejaVuSans-3" transform="translate(4125.484375 0)"/>
    <use xlink:href="#DejaVuSans-5a" transform="translate(4157.265625 0)"/>
    <use xlink:href="#DejaVuSans-4c" transform="translate(4239.046875 0)"/>
    <use xlink:href="#DejaVuSans-57" transform="translate(4266.828125 0)"/>
    <use xlink:href="#DejaVuSans-4b" transform="translate(4306.03125 0)"/>
    <use xlink:href="#DejaVuSans-4c" transform="translate(4369.40625 0)"/>
    <use xlink:href="#DejaVuSans-51" transform="translate(4397.1875 0)"/>
    <use xlink:href="#DejaVuSans-3" transform="translate(4460.5625 0)"/>
    <use xlink:href="#DejaVuSans-44" transform="translate(4492.34375 0)"/>
    <use xlink:href="#DejaVuSans-3" transform="translate(4553.625 0)"/>
    <use xlink:href="#DejaVuSans-47" transform="translate(4585.40625 0)"/>
    <use xlink:href="#DejaVuSans-48" transform="translate(4648.890625 0)"/>
    <use xlink:href="#DejaVuSans-59" transform="translate(4710.421875 0)"/>
    <use xlink:href="#DejaVuSans-4c" transform="translate(4769.609375 0)"/>
    <use xlink:href="#DejaVuSans-46" transform="translate(4797.390625 0)"/>
    <use xlink:href="#DejaVuSans-48" transform="translate(4852.375 0)"/>
    <use xlink:href="#DejaVuSans-f" transform="translate(4913.90625 0)"/>
    <use xlink:href="#DejaVuSans-3" transform="translate(4945.6875 0)"/>
    <use xlink:href="#DejaVuSans-51" transform="translate(4977.46875 0)"/>
    <use xlink:href="#DejaVuSans-52" transform="translate(5040.84375 0)"/>
    <use xlink:href="#DejaVuSans-57" transform="translate(5102.03125 0)"/>
    <use xlink:href="#DejaVuSans-3" transform="translate(5141.234375 0)"/>
    <use xlink:href="#DejaVuSans-4b" transform="translate(5173.015625 0)"/>
    <use xlink:href="#DejaVuSans-44" transform="translate(5236.390625 0)"/>
    <use xlink:href="#DejaVuSans-55" transform="translate(5297.671875 0)"/>
    <use xlink:href="#DejaVuSans-47" transform="translate(5337.03125 0)"/>
    <use xlink:href="#DejaVuSans-5a" transform="translate(5400.515625 0)"/>
    <use xlink:href="#DejaVuSans-44" transform="translate(5482.296875 0)"/>
    <use xlink:href="#DejaVuSans-55" transform="translate(5543.578125 0)"/>
    <use xlink:href="#DejaVuSans-48" transform="translate(5582.484375 0)"/>
    <use xlink:href="#DejaVuSans-3" transform="translate(5644.015625 0)"/>
    <use xlink:href="#DejaVuSans-57" transform="translate(5675.796875 0)"/>
    <use xlink:href="#DejaVuSans-4b" transform="translate(5715 0)"/>
    <use xlink:href="#DejaVuSans-55" transform="translate(5778.375 0)"/>
    <use xlink:href="#DejaVuSans-52" transform="translate(5817.28125 0)"/>
    <use xlink:href="#DejaVuSans-58" transform="translate(5878.46875 0)"/>
    <use xlink:href="#DejaVuSans-4a" transform="translate(5941.84375 0)"/>
    <use xlink:href="#DejaVuSans-4b" transform="translate(6005.328125 0)"/>
    <use xlink:href="#DejaVuSans-53" transform="translate(6068.703125 0)"/>
    <use xlink:href="#DejaVuSans-58" transform="translate(6132.1875 0)"/>
    <use xlink:href="#DejaVuSans-57" transform="translate(6195.5625 0)"/>
    <use xlink:href="#DejaVuSans-11" transform="translate(6234.765625 0)"/>
   </g>
  </g>
 </g>
 <defs>
  <clipPath id="pd2f6a789fb">
   <rect x="45.082344" y="70.467047" width="414.908828" height="195.606609"/>
  </clipPath>
  <clipPath id="pc6221d43b4">
   <rect x="474.291172" y="70.467047" width="414.908828" height="195.606609"/>
  </clipPath>
 </defs>
</svg>
